<svg width="49" height="48" viewBox="0 0 49 48" fill="none" xmlns="http://www.w3.org/2000/svg">
<path d="M22.5111 3C17.4041 2.99738 12.4629 4.81278 8.57228 8.12113C4.6817 11.4295 2.09583 16.0147 1.27771 21.0558C0.45959 26.0969 1.46264 31.2646 4.10726 35.6335C6.75188 40.0025 10.8653 43.2874 15.7111 44.9C16.7911 45.1 17.1811 44.44 17.1811 43.9V40.25C11.1811 41.55 9.94109 37.37 9.94109 37.37C9.54422 36.0474 8.68075 34.9139 7.51109 34.18C5.56109 32.85 7.66109 32.87 7.66109 32.87C8.34225 32.9653 8.99266 33.2149 9.56279 33.5996C10.1329 33.9843 10.6078 34.494 10.9511 35.09C12.8711 38.38 15.9511 37.43 17.2111 36.88C17.3097 35.7873 17.7956 34.7659 18.5811 34C13.8011 33.46 8.7811 31.62 8.7811 23.38C8.75045 21.2425 9.54567 19.1757 11.0011 17.61C10.3395 15.7565 10.4146 13.7197 11.2111 11.92C11.2111 11.92 13.0111 11.34 17.1211 14.12C20.6435 13.16 24.3587 13.16 27.8811 14.12C31.9911 11.34 33.7911 11.92 33.7911 11.92C34.5815 13.7211 34.6566 15.7556 34.0011 17.61C35.4547 19.1761 36.2465 21.2436 36.2111 23.38C36.2111 31.64 31.2111 33.45 26.4011 33.99C26.9172 34.5129 27.3147 35.1408 27.5666 35.831C27.8186 36.5212 27.919 37.2576 27.8611 37.99V43.89C27.8611 44.6 28.2511 45.13 29.3411 44.89C34.1819 43.2711 38.2888 39.9828 40.9272 35.6132C43.5656 31.2437 44.5634 26.078 43.742 21.0402C42.9206 16.0024 40.3336 11.4212 36.4439 8.116C32.5542 4.81084 27.6154 2.99737 22.5111 3Z" stroke="#FF6011" stroke-linecap="round" stroke-linejoin="round"/>
</svg>
