<?xml version="1.0" encoding="UTF-8"?>
<svg id="Lag_1" xmlns="http://www.w3.org/2000/svg" version="1.1" viewBox="0 0 367 577">
  <!-- Generator: Adobe Illustrator 29.3.1, SVG Export Plug-In . SVG Version: 2.1.0 Build 151)  -->
  <defs>
    <style>
      .st0 {
        fill: none;
        stroke: #ff6011;
      }

      .st1 {
        fill: #ff6011;
      }
    </style>
  </defs>
  <path class="st0" d="M166,560V12"/>
  <circle class="st1" cx="165" cy="559" r="12"/>
  <circle class="st1" cx="166" cy="12" r="12"/>
  <circle class="st1" cx="203.3" cy="75" r="12"/>
  <line class="st0" x1="167.3" y1="74.5" x2="191.3" y2="75"/>
  <path class="st1" d="M244.1,168.5c6.6,0,12,5.4,12,12s-5.4,12-12,12-12-5.4-12-12,5.4-12,12-12Z"/>
  <line class="st0" x1="167" y1="180.6" x2="246" y2="180.6"/>
  <circle class="st1" cx="243" cy="373" r="12"/>
  <line class="st0" x1="168" y1="372.4" x2="247" y2="372.4"/>
  <path class="st1" d="M125,231c-6.6,0-12-5.1-12-11.5s5.4-11.5,12-11.5,12,5.1,12,11.5-5.4,11.5-12,11.5Z"/>
  <line class="st0" x1="167.3" y1="219.2" x2="124.7" y2="219.2"/>
  <circle class="st1" cx="87" cy="336" r="12"/>
  <path class="st0" d="M167.3,336.5h-74.8"/>
  <circle class="st1" cx="135.4" cy="488" r="12"/>
  <path class="st0" d="M165.3,488.3h-19.7"/>
  <path class="st1" d="M183,272.4c0-.5,0-.9.2-1.3.1-.4.4-.7.6-1,.3-.3.6-.5,1-.7.4-.2.8-.2,1.3-.2s.9,0,1.3.2c.4.1.7.3,1,.6.3.2.5.5.6.9.1.3.2.7.2,1.1s0,.8-.2,1.2c-.1.3-.3.6-.6.9-.2.3-.5.5-.8.7-.3.2-.6.4-.9.6-.3.2-.6.4-.9.5-.3.2-.6.3-.8.5-.2.1-.3.3-.5.4-.1.1-.3.3-.4.4-.1.2-.2.3-.3.5,0,.2-.1.4-.1.6h5.5v.8h-6.5c0-.5,0-.9.2-1.3s.3-.8.6-1.1c.3-.4.7-.7,1.1-1,.4-.3.7-.5,1.1-.7.4-.2.7-.4,1-.6.3-.2.6-.4.8-.6s.4-.5.6-.7.2-.6.2-1,0-.6-.2-.9c-.1-.3-.3-.5-.5-.6s-.4-.3-.7-.4c-.3,0-.5-.1-.9-.1s-.6,0-.9.2c-.3.1-.5.3-.7.5-.2.2-.3.5-.4.8-.1.3-.1.6-.1,1h-1ZM196.1,274.1c0-.5,0-1,0-1.6,0-.5-.2-1-.4-1.4-.2-.4-.4-.7-.8-1-.3-.2-.7-.4-1.3-.4s-.9.1-1.2.4c-.3.2-.6.6-.7,1-.2.4-.3.9-.4,1.4,0,.5,0,1.1,0,1.6s0,1.2.1,1.7c0,.5.2,1,.4,1.3.2.4.4.6.7.9.3.2.7.3,1.2.3s1-.1,1.3-.4c.3-.3.6-.6.7-1,.2-.4.3-.9.3-1.4s0-1,0-1.5ZM193.7,269.1c.5,0,.9,0,1.3.2.4.1.7.3.9.6.3.3.5.5.6.9.2.3.3.7.4,1.1,0,.4.1.8.2,1.2s0,.8,0,1.2c0,.7,0,1.3-.1,1.9,0,.6-.3,1.1-.5,1.6-.2.5-.6.8-1,1.1-.4.3-1,.4-1.7.4s-1.2-.1-1.7-.4c-.4-.3-.8-.6-1-1.1-.2-.5-.4-1-.5-1.6,0-.6-.1-1.3-.1-1.9s0-1.2.1-1.8c0-.6.2-1.1.5-1.6.2-.5.6-.9,1-1.1.4-.3,1-.4,1.7-.4ZM198.5,272.4c0-.5,0-.9.2-1.3.1-.4.4-.7.6-1,.3-.3.6-.5,1-.7.4-.2.8-.2,1.3-.2s.9,0,1.3.2c.4.1.7.3,1,.6.3.2.5.5.6.9.1.3.2.7.2,1.1s0,.8-.2,1.2c-.1.3-.3.6-.6.9-.2.3-.5.5-.8.7-.3.2-.6.4-.9.6-.3.2-.6.4-.9.5s-.6.3-.8.5c-.2.1-.3.3-.5.4-.2.1-.3.3-.4.4-.1.2-.2.3-.3.5,0,.2-.1.4-.1.6h5.5v.8h-6.5c0-.5,0-.9.2-1.3,0-.4.3-.8.6-1.1.3-.4.7-.7,1.1-1,.4-.3.7-.5,1.1-.7.4-.2.7-.4,1-.6.3-.2.6-.4.8-.6.2-.2.4-.5.6-.7s.2-.6.2-1,0-.6-.2-.9c-.1-.3-.3-.5-.5-.6s-.4-.3-.7-.4c-.3,0-.5-.1-.9-.1s-.6,0-.9.2c-.3.1-.5.3-.7.5-.2.2-.3.5-.4.8-.1.3-.1.6-.1,1h-1ZM210.4,276.6h-4.5v-.8l4.6-6.6h.8v6.6h1.4v.8h-1.4v2.4h-.9v-2.4ZM206.7,275.8h3.6v-5.2l-3.6,5.2Z"/>
  <line class="st0" x1="154" y1="272.5" x2="178" y2="272.5"/>
  <path class="st1" d="M183,425.4c0-.5,0-.9.2-1.3.1-.4.4-.7.6-1,.3-.3.6-.5,1-.7.4-.2.8-.2,1.3-.2s.9,0,1.3.2c.4.1.7.3,1,.6.3.2.5.5.6.9.1.3.2.7.2,1.1s0,.8-.2,1.2c-.1.3-.3.6-.6.9-.2.3-.5.5-.8.7-.3.2-.6.4-.9.6-.3.2-.6.4-.9.5-.3.2-.6.3-.8.5-.2.1-.3.3-.5.4-.1.1-.3.3-.4.4-.1.2-.2.3-.3.5,0,.2-.1.4-.1.6h5.5v.8h-6.5c0-.5,0-.9.2-1.3s.3-.8.6-1.1c.3-.4.7-.7,1.1-1,.4-.3.7-.5,1.1-.7.4-.2.7-.4,1-.6.3-.2.6-.4.8-.6s.4-.5.6-.7.2-.6.2-1,0-.6-.2-.9c-.1-.3-.3-.5-.5-.6s-.4-.3-.7-.4c-.3,0-.5-.1-.9-.1s-.6,0-.9.2c-.3.1-.5.3-.7.5-.2.2-.3.5-.4.8-.1.3-.1.6-.1,1h-1ZM196.1,427.1c0-.5,0-1,0-1.6,0-.5-.2-1-.4-1.4-.2-.4-.4-.7-.8-1-.3-.2-.7-.4-1.3-.4s-.9.1-1.2.4c-.3.2-.6.6-.7,1-.2.4-.3.9-.4,1.4,0,.5,0,1.1,0,1.6s0,1.2.1,1.7c0,.5.2,1,.4,1.3.2.4.4.6.7.9.3.2.7.3,1.2.3s1-.1,1.3-.4c.3-.3.6-.6.7-1,.2-.4.3-.9.3-1.4s0-1,0-1.5ZM193.7,422.1c.5,0,.9,0,1.3.2.4.1.7.3.9.6.3.3.5.5.6.9.2.3.3.7.4,1.1,0,.4.1.8.2,1.2s0,.8,0,1.2c0,.7,0,1.3-.1,1.9,0,.6-.3,1.1-.5,1.6-.2.5-.6.8-1,1.1-.4.3-1,.4-1.7.4s-1.2-.1-1.7-.4c-.4-.3-.8-.6-1-1.1-.2-.5-.4-1-.5-1.6,0-.6-.1-1.3-.1-1.9s0-1.2.1-1.8c0-.6.2-1.1.5-1.6.2-.5.6-.9,1-1.1.4-.3,1-.4,1.7-.4ZM198.5,425.4c0-.5,0-.9.2-1.3.1-.4.4-.7.6-1,.3-.3.6-.5,1-.7.4-.2.8-.2,1.3-.2s.9,0,1.3.2c.4.1.7.3,1,.6.3.2.5.5.6.9.1.3.2.7.2,1.1s0,.8-.2,1.2c-.1.3-.3.6-.6.9-.2.3-.5.5-.8.7-.3.2-.6.4-.9.6-.3.2-.6.4-.9.5s-.6.3-.8.5c-.2.1-.3.3-.5.4-.2.1-.3.3-.4.4-.1.2-.2.3-.3.5,0,.2-.1.4-.1.6h5.5v.8h-6.5c0-.5,0-.9.2-1.3,0-.4.3-.8.6-1.1.3-.4.7-.7,1.1-1,.4-.3.7-.5,1.1-.7.4-.2.7-.4,1-.6.3-.2.6-.4.8-.6.2-.2.4-.5.6-.7s.2-.6.2-1,0-.6-.2-.9c-.1-.3-.3-.5-.5-.6s-.4-.3-.7-.4c-.3,0-.5-.1-.9-.1s-.6,0-.9.2c-.3.1-.5.3-.7.5-.2.2-.3.5-.4.8-.1.3-.1.6-.1,1h-1ZM208.4,426.5c.4,0,.8,0,1.1,0,.3,0,.6-.2.9-.3.3-.1.4-.3.6-.6s.2-.6.2-.9,0-.6-.2-.8c-.1-.2-.3-.4-.5-.5-.2-.1-.4-.2-.7-.3-.3,0-.5,0-.8,0s-.6,0-.9.2c-.3.1-.5.3-.7.4-.2.2-.3.4-.4.7-.1.3-.2.5-.2.8h-.9c0-.4,0-.8.2-1.2.2-.4.4-.7.7-1,.3-.3.7-.5,1-.5.4,0,.8-.1,1.2-.1s.8,0,1.1.2c.3,0,.6.2.9.4.3.2.5.4.6.8.1.3.2.7.2,1.1s-.1,1-.4,1.3c-.2.4-.6.7-1.1.9.4.1.6.3.9.4.2.2.4.4.5.6.1.2.2.4.3.7s0,.5,0,.7c0,.4,0,.8-.2,1.1-.1.4-.3.7-.6.9-.3.3-.6.5-1,.7-.4.2-.8.2-1.3.3-.6,0-1.1,0-1.5-.2-.4-.1-.8-.3-1-.5-.3-.2-.5-.6-.7-.9-.2-.4-.3-.9-.3-1.5h.9c0,.8.2,1.3.7,1.7.5.4,1.1.6,1.8.6s.7,0,1-.2c.3-.1.6-.3.8-.5.2-.2.4-.4.5-.7.1-.3.2-.6.2-.8,0-.4-.1-.7-.3-1-.2-.3-.4-.5-.7-.6-.3-.2-.6-.3-1-.3-.4,0-.8,0-1.2,0v-.7Z"/>
  <line class="st0" x1="154" y1="426.5" x2="178" y2="426.5"/>
  <path class="st1" d="M7.6,459.7h1.5v11.3h-1.5v-11.3ZM2.4,459h11.8v1.3H2.4v-1.3ZM17.4,471.2c-1,0-2-.2-2.8-.6-.8-.4-1.4-1-1.9-1.7-.4-.7-.7-1.5-.7-2.5s.2-1.8.6-2.5c.4-.7,1-1.3,1.8-1.6.8-.4,1.6-.6,2.6-.6s1.8.2,2.5.6c.7.4,1.3,1,1.7,1.8.4.8.6,1.7.6,2.7h-8.7v-1.2h8.1l-.9.5c0-.7-.2-1.3-.5-1.7s-.7-.9-1.2-1.1c-.5-.3-1.1-.4-1.7-.4s-1.3.1-1.8.4c-.5.3-.9.7-1.2,1.2-.3.5-.4,1.1-.4,1.8s.2,1.4.5,1.9c.3.5.8.9,1.4,1.2.6.3,1.3.4,2.1.4s1.5-.1,2.2-.4c.7-.2,1.4-.6,1.9-1v1.2c-.6.4-1.2.8-2,1.1-.8.3-1.5.4-2.3.4ZM22.2,471l4.4-5.2v1.1s-4.2-4.9-4.2-4.9h1.7l3.4,3.9h-.9l3.4-3.9h1.7l-4.2,4.9v-1.2s4.5,5.3,4.5,5.3h-1.7l-3.7-4.3h.9l-3.7,4.3h-1.7ZM32.1,463.2v-.7l2-.4.6-2.4h.9v2.3h4.4v1.2h-4.4v4.6c0,.8.2,1.4.5,1.7.4.3.9.5,1.7.5s.9,0,1.3-.2c.4-.1.7-.3,1.1-.5v1.3c-.3.2-.6.3-1.1.4-.5.1-1,.2-1.5.2-.8,0-1.5-.1-2-.4-.5-.3-.8-.7-1.1-1.2-.2-.5-.3-1-.3-1.7v-4.8h-2ZM41.7,462h.7c0,.1.7,0,.7,0v9h-1.5v-9ZM42.4,460.6c-.3,0-.6,0-.8-.3-.2-.2-.3-.4-.3-.7s.1-.5.3-.7c.2-.2.5-.3.8-.3s.6,0,.8.3c.2.2.3.4.3.7s-.1.5-.3.7c-.2.2-.5.3-.8.3ZM45.5,458.7h1.5v12.3h-1.5v-12.3ZM54.1,471.2c-1,0-2-.2-2.8-.6-.8-.4-1.4-1-1.9-1.7-.4-.7-.7-1.5-.7-2.5s.2-1.8.6-2.5c.4-.7,1-1.3,1.8-1.6.8-.4,1.6-.6,2.6-.6s1.8.2,2.5.6c.7.4,1.3,1,1.7,1.8.4.8.6,1.7.6,2.7h-8.7v-1.2h8.1l-.9.5c0-.7-.2-1.3-.5-1.7-.3-.5-.7-.9-1.2-1.1-.5-.3-1.1-.4-1.7-.4s-1.3.1-1.8.4c-.5.3-.9.7-1.2,1.2-.3.5-.4,1.1-.4,1.8s.2,1.4.5,1.9c.3.5.8.9,1.4,1.2.6.3,1.3.4,2.1.4s1.5-.1,2.2-.4c.7-.2,1.4-.6,1.9-1v1.2c-.6.4-1.2.8-2,1.1-.8.3-1.5.4-2.3.4ZM3.4,478.7h1.5v12.3h-1.5v-12.3ZM8.5,481.8c.8,0,1.6.2,2.1.5.6.3,1,.8,1.3,1.5.3.6.5,1.4.5,2.3v5h-1.5v-4.7c0-1.1-.2-1.9-.7-2.4-.5-.6-1.2-.8-2.2-.8s-1.2.1-1.7.4c-.5.3-.9.7-1.2,1.2-.3.5-.4,1.1-.4,1.8l-.6-.4c0-.9.3-1.7.7-2.3.4-.7.9-1.2,1.5-1.5.6-.4,1.3-.5,2.1-.5ZM23.3,491l-.3-3.4.4-1.1-.4-1.1.3-3.4h1.5l-.4,4.5.4,4.5h-1.5ZM23.9,486.5c-.2.9-.6,1.8-1.1,2.5-.5.7-1.1,1.3-1.8,1.6-.7.4-1.4.6-2.3.6s-1.7-.2-2.4-.6c-.7-.4-1.2-1-1.6-1.7-.4-.7-.6-1.5-.6-2.5s.2-1.8.6-2.5c.4-.7.9-1.3,1.6-1.6.7-.4,1.5-.6,2.4-.6s1.6.2,2.3.6c.7.4,1.3.9,1.8,1.6.5.7.8,1.5,1.1,2.5ZM15.7,486.5c0,.7.1,1.3.4,1.8.3.5.7.9,1.2,1.2.5.3,1.1.4,1.7.4s1.2-.1,1.8-.4c.5-.3,1-.7,1.4-1.2.4-.5.8-1.1,1-1.8-.3-.7-.6-1.3-1-1.8-.4-.5-.9-.9-1.4-1.2-.5-.3-1.1-.4-1.8-.4s-1.2.1-1.7.4c-.5.3-.9.7-1.2,1.2-.3.5-.4,1.1-.4,1.8ZM26.6,482h1.5l.5,3.1v6h-1.5v-6.2l-.5-2.8ZM32.3,481.8c.8,0,1.6.2,2.1.5.6.3,1,.8,1.3,1.5.3.6.5,1.4.5,2.3v5h-1.5v-4.7c0-1.1-.3-1.9-.8-2.4-.5-.6-1.2-.8-2.2-.8s-1.2.1-1.7.4c-.5.3-.9.7-1.2,1.2-.3.5-.4,1.1-.4,1.8l-.6-.4c0-.9.3-1.7.7-2.3.4-.7.9-1.2,1.5-1.5.6-.4,1.3-.5,2.1-.5ZM47.1,491l-.3-3.4.4-1.1-.4-1.1.6-6.7h1.5l-.8,7.7.4,4.6h-1.5ZM47.7,486.5c-.2.9-.6,1.8-1.1,2.5-.5.7-1.1,1.3-1.8,1.6-.7.4-1.4.6-2.3.6s-1.7-.2-2.4-.6c-.7-.4-1.2-1-1.6-1.7-.4-.7-.6-1.5-.6-2.5s.2-1.8.6-2.5c.4-.7.9-1.3,1.6-1.6.7-.4,1.5-.6,2.4-.6s1.6.2,2.3.6c.7.4,1.3.9,1.8,1.6.5.7.8,1.5,1.1,2.5ZM39.5,486.5c0,.7.1,1.3.4,1.8.3.5.7.9,1.2,1.2.5.3,1.1.4,1.7.4s1.2-.1,1.8-.4c.5-.3,1-.7,1.4-1.2.4-.5.8-1.1,1-1.8-.3-.7-.6-1.3-1-1.8-.4-.5-.9-.9-1.4-1.2-.5-.3-1.1-.4-1.8-.4s-1.2.1-1.7.4c-.5.3-.9.7-1.2,1.2-.3.5-.4,1.1-.4,1.8ZM60.4,487.6c-.1.7-.4,1.3-.9,1.9-.5.5-1,1-1.8,1.3-.7.3-1.5.5-2.4.5s-1.9-.2-2.7-.6c-.8-.4-1.4-1-1.8-1.7-.4-.7-.6-1.5-.6-2.5s.2-1.7.6-2.4c.4-.7,1-1.3,1.8-1.7.8-.4,1.7-.6,2.7-.6s1.7.2,2.4.5c.7.3,1.3.7,1.8,1.3.5.5.8,1.2.9,1.9h-1.5c-.2-.7-.6-1.3-1.2-1.8-.6-.4-1.4-.7-2.3-.7s-1.4.1-1.9.4c-.5.3-.9.7-1.2,1.2-.3.5-.4,1.1-.4,1.8s.1,1.3.4,1.9c.3.5.7.9,1.2,1.2.5.3,1.2.4,1.9.4s1.7-.2,2.3-.7c.6-.4,1-1,1.2-1.7h1.5ZM61.7,482h1.5l.5,3.1v5.9h-1.5v-6.2l-.5-2.8ZM68.5,482v1.3c-.2,0-.4-.1-.7-.1-.3,0-.5,0-.8,0-.6,0-1.2.1-1.7.4-.5.3-.9.7-1.2,1.3-.3.5-.4,1.2-.4,1.9l-.4-.6c0-.6.1-1.2.3-1.7.2-.5.4-1,.8-1.4.3-.4.7-.7,1.2-.9.5-.2,1-.3,1.6-.3s.5,0,.7,0c.2,0,.4,0,.6.1ZM78,491l-.3-3.4.4-1.1-.4-1.1.3-3.4h1.5l-.4,4.5.4,4.5h-1.5ZM78.6,486.5c-.2.9-.6,1.8-1.1,2.5-.5.7-1.1,1.3-1.8,1.6-.7.4-1.4.6-2.3.6s-1.7-.2-2.4-.6c-.7-.4-1.2-1-1.6-1.7-.4-.7-.6-1.5-.6-2.5s.2-1.8.6-2.5c.4-.7.9-1.3,1.6-1.6.7-.4,1.5-.6,2.4-.6s1.6.2,2.3.6c.7.4,1.3.9,1.8,1.6.5.7.8,1.5,1.1,2.5ZM70.4,486.5c0,.7.1,1.3.4,1.8.3.5.7.9,1.2,1.2.5.3,1.1.4,1.7.4s1.2-.1,1.8-.4c.5-.3,1-.7,1.4-1.2.4-.5.8-1.1,1-1.8-.3-.7-.6-1.3-1-1.8-.4-.5-.9-.9-1.4-1.2-.5-.3-1.1-.4-1.8-.4s-1.2.1-1.7.4c-.5.3-.9.7-1.2,1.2-.3.5-.4,1.1-.4,1.8ZM86.6,479.6c-.8,0-1.4.2-1.8.5-.4.3-.6.9-.6,1.7v9.2h-1.5v-8.8c0-.7.1-1.3.4-1.9.3-.6.7-1,1.2-1.3.5-.3,1.3-.5,2.1-.5s.8,0,1.1.1c.3,0,.6.2.9.3v1.2c-.3-.1-.6-.3-.9-.3-.3,0-.6,0-1,0ZM80.7,483.7v-1.2h7.7v1.2h-7.7ZM87.5,483.7v-1.2h2l.6-2.4h.9v2.4h4.4v1.2h-4.4v4.1c0,.8.2,1.4.5,1.7.4.3.9.5,1.7.5s.9,0,1.3-.2.7-.3,1.1-.5v1.2c-.2.2-.6.3-1.1.5-.5.1-1,.2-1.6.2-.8,0-1.5-.1-2-.4-.5-.3-.8-.7-1.1-1.2-.2-.5-.3-1-.3-1.7v-4.3h-2ZM96.6,493.1l1.2-2.6v.5c-.1,0-.3,0-.5-.1-.1,0-.3-.2-.4-.4,0-.2-.1-.3-.1-.5s0-.4.1-.5c0-.2.2-.3.4-.4.2,0,.3-.1.5-.1s.4,0,.5.1c.2,0,.3.2.4.4,0,.2.1.3.1.5s0,.4-.1.7c0,.2-.2.5-.4.9l-.8,1.4h-.9ZM11.9,511l-.3-3.4.4-1.1-.4-1.1.6-6.7h1.5l-.8,7.7.4,4.6h-1.5ZM12.5,506.5c-.2.9-.6,1.8-1.1,2.5-.5.7-1.1,1.3-1.8,1.6-.7.4-1.4.6-2.3.6s-1.7-.2-2.4-.6c-.7-.4-1.2-1-1.6-1.7-.4-.7-.6-1.5-.6-2.5s.2-1.8.6-2.5c.4-.7.9-1.3,1.6-1.6.7-.4,1.5-.6,2.4-.6s1.6.2,2.3.6c.7.4,1.3.9,1.8,1.6.5.7.8,1.5,1.1,2.5ZM4.3,506.5c0,.7.1,1.3.4,1.8.3.5.7.9,1.2,1.2.5.3,1.1.4,1.7.4s1.2-.1,1.8-.4c.5-.3,1-.7,1.4-1.2.4-.5.8-1.1,1-1.8-.3-.7-.6-1.3-1-1.8-.4-.5-.9-.9-1.4-1.2-.5-.3-1.1-.4-1.8-.4s-1.2.1-1.7.4c-.5.3-.9.7-1.2,1.2-.3.5-.4,1.1-.4,1.8ZM20.4,511.2c-1,0-2-.2-2.8-.6-.8-.4-1.4-1-1.9-1.7-.4-.7-.7-1.5-.7-2.5s.2-1.8.6-2.5c.4-.7,1-1.3,1.8-1.6.8-.4,1.6-.6,2.6-.6s1.8.2,2.5.6,1.3,1,1.7,1.8c.4.8.6,1.7.6,2.7h-8.7v-1.2h8.1l-.9.5c0-.7-.2-1.3-.5-1.7s-.7-.9-1.2-1.1c-.5-.3-1.1-.4-1.7-.4s-1.3.1-1.8.4c-.5.3-.9.7-1.2,1.2-.3.5-.4,1.1-.4,1.8s.2,1.4.5,1.9c.3.5.8.9,1.4,1.2s1.3.4,2.1.4,1.5-.1,2.2-.4c.7-.2,1.4-.6,1.9-1v1.2c-.6.4-1.2.8-2,1.1-.8.3-1.5.4-2.3.4ZM35.6,508.4c0,.6-.2,1.1-.5,1.5-.3.4-.8.8-1.5,1-.7.2-1.5.4-2.4.4s-1.8-.1-2.6-.4c-.7-.3-1.3-.7-1.7-1.2-.4-.5-.6-1.1-.7-1.7h1.5c0,.4.3.8.6,1.1.3.3.7.5,1.2.7.5.2,1.1.3,1.7.3.9,0,1.7-.1,2.2-.4.5-.3.8-.7.8-1.2s-.2-.7-.5-.8c-.3-.2-1-.3-1.9-.4l-1.7-.2c-.9,0-1.6-.2-2.1-.5-.5-.2-.9-.5-1.1-.9-.2-.4-.3-.7-.3-1.2s.2-1.1.5-1.5c.4-.4.9-.7,1.5-.9.6-.2,1.4-.3,2.2-.3s1.7.1,2.4.4c.7.3,1.3.6,1.7,1.1.4.5.6,1,.7,1.6h-1.5c0-.3-.2-.7-.5-.9-.3-.3-.6-.5-1.1-.7-.5-.2-1.1-.3-1.7-.3s-1.5.1-2,.4c-.5.2-.7.6-.7,1.1s.2.6.5.8c.3.2.9.3,1.6.4l2,.2c.9,0,1.6.2,2.1.4.5.2.9.5,1.1.8.2.3.3.8.3,1.2ZM37.4,502h.7c0,.1.7,0,.7,0v9h-1.5v-9ZM38.1,500.6c-.3,0-.6,0-.8-.3-.2-.2-.3-.4-.3-.7s.1-.5.3-.7c.2-.2.5-.3.8-.3s.6,0,.8.3c.2.2.3.4.3.7s-.1.5-.3.7c-.2.2-.5.3-.8.3ZM49.6,508.8v-1.9c0,0,0-1.5,0-1.5v-.3c0,0,0-3.2,0-3.2h1.5v6.6c0,1.2-.2,2.1-.7,2.9-.5.8-1.1,1.4-1.9,1.7-.8.4-1.7.6-2.8.6s-1.5-.1-2.2-.3c-.7-.2-1.3-.5-1.9-1v-1.3c.6.5,1.3.9,2,1.1.7.2,1.4.3,2,.3,1.3,0,2.3-.3,3-1,.7-.7,1-1.6,1-2.8ZM45.1,510.4c-.8,0-1.5-.2-2.2-.5-.7-.4-1.2-.9-1.6-1.5-.4-.7-.6-1.4-.6-2.3s.2-1.6.6-2.3c.4-.7.9-1.2,1.6-1.5.7-.4,1.4-.5,2.2-.5s1.2,0,1.7.3c.5.2,1,.4,1.4.7.4.3.8.7,1.1,1,.3.4.5.8.7,1.2.2.4.3.7.3,1.1s-.1.9-.4,1.4c-.2.5-.6,1-1.1,1.4-.5.4-1,.8-1.6,1.1-.6.3-1.3.4-2.1.4ZM45.5,509.2c.8,0,1.6-.2,2.3-.7.7-.5,1.3-1.3,1.9-2.4-.6-1.1-1.2-1.9-1.9-2.4-.7-.5-1.5-.7-2.3-.7s-1.3.1-1.8.4c-.5.3-.8.6-1.1,1.1-.2.5-.4,1-.4,1.6s.1,1.1.4,1.6c.3.5.6.8,1.1,1.1.5.3,1.1.4,1.8.4ZM53,502h1.5l.5,3.1v6h-1.5v-6.2l-.5-2.8ZM58.7,501.8c.8,0,1.6.2,2.1.5.6.3,1,.8,1.3,1.5.3.6.5,1.4.5,2.3v5h-1.5v-4.7c0-1.1-.3-1.9-.8-2.4-.5-.6-1.2-.8-2.2-.8s-1.2.1-1.7.4c-.5.3-.9.7-1.2,1.2-.3.5-.4,1.1-.4,1.8l-.6-.4c0-.9.3-1.7.7-2.3.4-.7.9-1.2,1.5-1.5.6-.4,1.3-.5,2.1-.5ZM78.8,502.1h-1.5c0-.7-.4-1.2-.9-1.6-.5-.4-1.2-.6-2-.6s-.9,0-1.3.2c-.4.1-.7.3-.9.6-.2.3-.3.6-.3,1s0,.6.3.9c.2.3.5.7,1,1.1l8.7,7.3h-2l-7.9-6.6c-.6-.5-1-1-1.3-1.4-.2-.4-.4-.9-.4-1.3s.2-1.1.5-1.5c.3-.4.8-.8,1.4-1,.6-.2,1.4-.4,2.2-.4s1.6.1,2.3.4,1.1.7,1.5,1.2c.4.5.6,1.1.6,1.7ZM79.4,504.8h1.6l-2.9,3.7c-.4.6-.9,1.1-1.4,1.5-.5.4-1,.7-1.6.9-.6.2-1.3.3-2,.3s-1.7-.2-2.3-.5c-.6-.3-1.1-.7-1.5-1.3-.3-.5-.5-1.1-.5-1.7s.1-1.2.4-1.6c.3-.5.8-.9,1.4-1.2.6-.4,1.4-.6,2.3-.8l.5.6c-1,.2-1.7.6-2.3,1.1-.5.5-.8,1.1-.8,1.7s.1.8.3,1.2c.2.4.5.6,1,.9.4.2,1,.3,1.6.3.9,0,1.6-.2,2.3-.5.6-.4,1.2-.9,1.6-1.5l2.2-3.1ZM12.9,527.6c-.1.7-.4,1.3-.9,1.9-.5.5-1,1-1.8,1.3-.7.3-1.5.5-2.4.5s-1.9-.2-2.7-.6c-.8-.4-1.4-1-1.8-1.7-.4-.7-.6-1.5-.6-2.5s.2-1.7.6-2.4c.4-.7,1-1.3,1.8-1.7.8-.4,1.7-.6,2.7-.6s1.7.2,2.4.5c.7.3,1.3.7,1.8,1.3.5.5.8,1.2.9,1.9h-1.5c-.2-.7-.6-1.3-1.2-1.8-.6-.4-1.4-.7-2.3-.7s-1.4.1-1.9.4c-.5.3-.9.7-1.2,1.2-.3.5-.4,1.1-.4,1.8s.1,1.3.4,1.9.7.9,1.2,1.2c.5.3,1.2.4,1.9.4s1.7-.2,2.3-.7c.6-.4,1-1,1.2-1.7h1.5ZM19.5,531.2c-1.1,0-2-.2-2.8-.6-.8-.4-1.4-.9-1.9-1.7-.4-.7-.7-1.5-.7-2.5s.2-1.8.7-2.5c.4-.7,1.1-1.3,1.9-1.6.8-.4,1.7-.6,2.8-.6s2,.2,2.8.6c.8.4,1.4.9,1.9,1.6.5.7.7,1.5.7,2.5s-.2,1.7-.7,2.5c-.4.7-1.1,1.3-1.9,1.7-.8.4-1.7.6-2.8.6ZM19.5,530c.8,0,1.5-.1,2-.4.6-.3,1-.7,1.3-1.2.3-.5.5-1.1.5-1.9s-.2-1.3-.5-1.8c-.3-.5-.8-.9-1.3-1.2-.6-.3-1.3-.4-2-.4s-1.5.1-2,.4c-.6.3-1,.7-1.3,1.2-.3.5-.5,1.1-.5,1.8s.2,1.3.5,1.9c.3.5.8.9,1.3,1.2.6.3,1.3.4,2,.4ZM26.3,522h1.5l.5,3.1v6h-1.5v-6.2l-.5-2.8ZM31.7,521.8c.8,0,1.4.2,2,.5.5.3,1,.8,1.2,1.5.3.6.4,1.4.4,2.3v5h-1.5v-4.7c0-1.1-.2-1.9-.7-2.4-.4-.6-1.1-.8-2-.8s-1.1.1-1.6.4c-.4.3-.8.7-1,1.2-.2.5-.4,1.1-.4,1.8l-.6-.4c0-.9.3-1.7.6-2.3.4-.7.8-1.2,1.4-1.5.6-.4,1.2-.5,2-.5ZM38.8,521.8c.8,0,1.4.2,2,.5.6.3,1,.8,1.3,1.5.3.6.4,1.4.4,2.3v5h-1.5v-4.7c0-1.1-.2-1.9-.7-2.4-.4-.6-1.1-.8-2-.8s-1.1.1-1.6.4c-.4.3-.8.7-1,1.2-.2.5-.4,1.1-.4,1.8l-.6-.4c0-.9.3-1.7.6-2.3.4-.7.8-1.2,1.4-1.5.6-.4,1.2-.5,2-.5ZM44.3,522h1.5l.5,3.1v6h-1.5v-6.2l-.5-2.8ZM49.7,521.8c.8,0,1.4.2,2,.5.5.3,1,.8,1.2,1.5.3.6.4,1.4.4,2.3v5h-1.5v-4.7c0-1.1-.2-1.9-.7-2.4-.4-.6-1.1-.8-2-.8s-1.1.1-1.6.4c-.4.3-.8.7-1,1.2-.2.5-.4,1.1-.4,1.8l-.6-.4c0-.9.3-1.7.6-2.3.4-.7.8-1.2,1.4-1.5.6-.4,1.2-.5,2-.5ZM56.8,521.8c.8,0,1.4.2,2,.5.6.3,1,.8,1.3,1.5.3.6.4,1.4.4,2.3v5h-1.5v-4.7c0-1.1-.2-1.9-.7-2.4-.4-.6-1.1-.8-2-.8s-1.1.1-1.6.4c-.4.3-.8.7-1,1.2-.2.5-.4,1.1-.4,1.8l-.6-.4c0-.9.3-1.7.6-2.3.4-.7.8-1.2,1.4-1.5.6-.4,1.2-.5,2-.5ZM66.5,531.2c-.8,0-1.5-.2-2.1-.5-.6-.3-1-.8-1.3-1.5-.3-.6-.4-1.4-.4-2.3v-4.9h1.5v4.7c0,1.1.2,1.9.7,2.4.5.5,1.2.8,2.1.8s1.2-.1,1.7-.4c.5-.3.9-.7,1.1-1.2.3-.5.4-1.2.4-1.9l.6.3c0,.9-.3,1.7-.7,2.4-.4.7-.9,1.2-1.5,1.6-.6.4-1.3.5-2.1.5ZM70.6,531l-.5-3.1v-5.9h1.5v6.2l.5,2.8h-1.5ZM73.6,522h1.5l.5,3.1v6h-1.5v-6.2l-.5-2.8ZM79.4,521.8c.8,0,1.6.2,2.1.5.6.3,1,.8,1.3,1.5.3.6.5,1.4.5,2.3v5h-1.5v-4.7c0-1.1-.3-1.9-.8-2.4-.5-.6-1.2-.8-2.2-.8s-1.2.1-1.7.4c-.5.3-.9.7-1.2,1.2-.3.5-.4,1.1-.4,1.8l-.6-.4c0-.9.3-1.7.7-2.3.4-.7.9-1.2,1.5-1.5.6-.4,1.3-.5,2.1-.5ZM85.6,522h.7c0,.1.7,0,.7,0v9h-1.5v-9ZM86.3,520.6c-.3,0-.6,0-.8-.3-.2-.2-.3-.4-.3-.7s.1-.5.3-.7c.2-.2.5-.3.8-.3s.6,0,.8.3c.2.2.3.4.3.7s-.1.5-.3.7c-.2.2-.5.3-.8.3ZM99,527.6c-.1.7-.4,1.3-.9,1.9-.5.5-1,1-1.8,1.3-.7.3-1.5.5-2.4.5s-1.9-.2-2.7-.6c-.8-.4-1.4-1-1.8-1.7-.4-.7-.6-1.5-.6-2.5s.2-1.7.6-2.4c.4-.7,1-1.3,1.8-1.7.8-.4,1.7-.6,2.7-.6s1.7.2,2.4.5c.7.3,1.3.7,1.8,1.3.5.5.8,1.2.9,1.9h-1.5c-.2-.7-.6-1.3-1.2-1.8-.6-.4-1.4-.7-2.3-.7s-1.4.1-1.9.4c-.5.3-.9.7-1.2,1.2-.3.5-.4,1.1-.4,1.8s.1,1.3.4,1.9c.3.5.7.9,1.2,1.2.5.3,1.2.4,1.9.4s1.7-.2,2.3-.7c.6-.4,1-1,1.2-1.7h1.5ZM109.3,531l-.3-3.4.4-1.1-.4-1.1.3-3.4h1.5l-.4,4.5.4,4.5h-1.5ZM109.9,526.5c-.2.9-.6,1.8-1.1,2.5-.5.7-1.1,1.3-1.8,1.6-.7.4-1.4.6-2.3.6s-1.7-.2-2.4-.6c-.7-.4-1.2-1-1.6-1.7-.4-.7-.6-1.5-.6-2.5s.2-1.8.6-2.5c.4-.7.9-1.3,1.6-1.6.7-.4,1.5-.6,2.4-.6s1.6.2,2.3.6c.7.4,1.3.9,1.8,1.6.5.7.8,1.5,1.1,2.5ZM101.7,526.5c0,.7.1,1.3.4,1.8.3.5.7.9,1.2,1.2.5.3,1.1.4,1.7.4s1.2-.1,1.8-.4c.5-.3,1-.7,1.4-1.2.4-.5.8-1.1,1-1.8-.3-.7-.6-1.3-1-1.8-.4-.5-.9-.9-1.4-1.2-.5-.3-1.1-.4-1.8-.4s-1.2.1-1.7.4c-.5.3-.9.7-1.2,1.2-.3.5-.4,1.1-.4,1.8ZM111.9,523.2v-.7l2-.4.6-2.4h.9v2.3h4.4v1.2h-4.4v4.6c0,.8.2,1.4.5,1.7.4.3.9.5,1.7.5s.9,0,1.3-.2c.4-.1.7-.3,1.1-.5v1.3c-.3.2-.6.3-1.1.4-.5.1-1,.2-1.5.2-.8,0-1.5-.1-2-.4-.5-.3-.8-.7-1.1-1.2-.2-.5-.3-1-.3-1.7v-4.8h-2ZM121.5,522h.7c0,.1.7,0,.7,0v9h-1.5v-9ZM122.2,520.6c-.3,0-.6,0-.8-.3-.2-.2-.3-.4-.3-.7s.1-.5.3-.7c.2-.2.5-.3.8-.3s.6,0,.8.3c.2.2.3.4.3.7s-.1.5-.3.7c-.2.2-.5.3-.8.3ZM130.1,531.2c-1.1,0-2-.2-2.8-.6-.8-.4-1.4-.9-1.9-1.7-.4-.7-.7-1.5-.7-2.5s.2-1.8.7-2.5c.4-.7,1.1-1.3,1.9-1.6.8-.4,1.7-.6,2.8-.6s2,.2,2.8.6c.8.4,1.4.9,1.9,1.6.5.7.7,1.5.7,2.5s-.2,1.7-.7,2.5c-.4.7-1.1,1.3-1.9,1.7-.8.4-1.7.6-2.8.6ZM130.1,530c.8,0,1.5-.1,2-.4.6-.3,1-.7,1.3-1.2.3-.5.5-1.1.5-1.9s-.2-1.3-.5-1.8c-.3-.5-.8-.9-1.3-1.2-.6-.3-1.3-.4-2-.4s-1.5.1-2,.4c-.6.3-1,.7-1.3,1.2s-.5,1.1-.5,1.8.2,1.3.5,1.9.8.9,1.3,1.2c.6.3,1.3.4,2,.4ZM136.9,522h1.5l.5,3.1v6h-1.5v-6.2l-.5-2.8ZM142.6,521.8c.8,0,1.6.2,2.1.5.6.3,1,.8,1.3,1.5.3.6.5,1.4.5,2.3v5h-1.5v-4.7c0-1.1-.3-1.9-.8-2.4-.5-.6-1.2-.8-2.2-.8s-1.2.1-1.7.4c-.5.3-.9.7-1.2,1.2-.3.5-.4,1.1-.4,1.8l-.6-.4c0-.9.3-1.7.7-2.3.4-.7.9-1.2,1.5-1.5.6-.4,1.3-.5,2.1-.5Z"/>
  <path class="st1" d="M3,547.8v4.4c0,.5,0,1,.3,1.3.3.5.8.8,1.5.8s1.4-.3,1.7-.8c.2-.3.2-.7.2-1.2v-4.4h1v4c0,.9-.1,1.6-.4,2-.4.9-1.3,1.3-2.5,1.3s-2-.4-2.5-1.3c-.2-.5-.4-1.2-.4-2v-4h1ZM9,549.8h.8v.7c.2-.3.5-.5.8-.7.3-.1.6-.2.9-.2.7,0,1.2.3,1.5.8.1.3.2.7.2,1.2v3.4h-.9v-3.3c0-.3,0-.6-.1-.8-.2-.3-.4-.5-.8-.5s-.4,0-.5,0c-.2,0-.5.2-.6.4-.1.2-.2.4-.3.5,0,.2,0,.4,0,.8v2.7h-.9v-5.2ZM14.6,549.8h.9v5.2h-.9v-5.2ZM14.6,547.8h.9v1h-.9v-1ZM17.3,549.8l1.4,4.3,1.5-4.3h1l-2,5.2h-.9l-1.9-5.2h1ZM24,549.7c.4,0,.7,0,1.1.3.3.2.6.4.8.7.2.3.3.6.4.9,0,.2,0,.6,0,1.2h-3.8c0,.5.1,1,.4,1.3.2.3.6.5,1.1.5s.8-.2,1.1-.5c.2-.2.3-.4.3-.6h.9c0,.2,0,.4-.2.6-.1.2-.3.4-.4.6-.3.3-.6.4-1,.5-.2,0-.5,0-.7,0-.7,0-1.2-.2-1.7-.7-.5-.5-.7-1.1-.7-2s.2-1.5.7-2c.5-.5,1.1-.8,1.8-.8ZM25.4,552c0-.4-.1-.7-.2-.9-.2-.4-.6-.6-1.2-.6s-.7.1-1,.4c-.3.3-.4.7-.4,1.1h2.9ZM27.4,549.8h.8v.9c0-.2.2-.4.5-.6.3-.3.6-.4.9-.4s0,0,0,0c0,0,.1,0,.2,0v.9c0,0-.1,0-.1,0,0,0,0,0-.1,0-.4,0-.8.1-1,.4-.2.3-.4.6-.4,1v3h-.9v-5.2ZM31.2,553.4c0,.3,0,.5.2.7.2.3.6.4,1.2.4s.6,0,.9-.2c.2-.1.4-.4.4-.7s0-.4-.3-.5c-.1,0-.4-.2-.8-.2l-.7-.2c-.4-.1-.8-.2-1-.4-.4-.2-.6-.6-.6-1s.2-.9.5-1.2c.4-.3.8-.5,1.4-.5s1.4.2,1.7.7c.2.3.3.6.3.9h-.8c0-.2,0-.4-.2-.5-.2-.2-.6-.3-1-.3s-.6,0-.8.2c-.2.1-.3.3-.3.5s.1.4.3.5c.1,0,.3.2.6.2h.6c.6.3,1.1.4,1.3.6.3.2.5.6.5,1.1s-.2.9-.5,1.2c-.4.3-.9.5-1.6.5s-1.3-.2-1.7-.5c-.3-.4-.5-.8-.5-1.3h.8ZM35.7,549.8h.9v5.2h-.9v-5.2ZM35.7,547.8h.9v1h-.9v-1ZM38.1,548.3h.9v1.5h.8v.7h-.8v3.4c0,.2,0,.3.2.4,0,0,.2,0,.3,0h.1s.1,0,.2,0v.7c-.1,0-.2,0-.3,0-.1,0-.2,0-.4,0-.4,0-.7-.1-.8-.3-.1-.2-.2-.5-.2-.8v-3.5h-.7v-.7h.7v-1.5ZM44,549.8h1c-.1.3-.4,1.1-.8,2.3-.3.9-.6,1.6-.8,2.2-.5,1.3-.9,2.1-1.1,2.4-.2.3-.6.4-1.1.4s-.2,0-.3,0c0,0-.1,0-.2,0v-.8c.2,0,.3,0,.3,0,0,0,.1,0,.2,0,.2,0,.3,0,.4,0,0,0,.1-.1.2-.2,0,0,0-.2.2-.4.1-.2.2-.4.2-.5l-1.9-5.4h1l1.4,4.3,1.4-4.3ZM51.7,547.6c.9,0,1.6.2,2.1.7.5.5.8,1,.8,1.6h-.9c-.1-.5-.3-.8-.6-1.1-.3-.3-.8-.4-1.3-.4s-1.3.2-1.7.7c-.4.5-.6,1.3-.6,2.3s.2,1.5.6,2c.4.5,1,.8,1.8.8s1.3-.3,1.6-.8c.2-.3.3-.7.4-1.1h.9c0,.8-.4,1.4-.8,1.9-.6.6-1.3.9-2.3.9s-1.5-.3-2.1-.8c-.7-.7-1.1-1.7-1.1-3.1s.3-1.9.8-2.6c.6-.7,1.4-1.1,2.5-1.1ZM57.8,554.4c.6,0,1-.2,1.2-.7.2-.4.3-.9.3-1.5s0-.9-.2-1.2c-.2-.5-.7-.7-1.3-.7s-.9.2-1.2.6c-.2.4-.4.9-.4,1.5s.1,1,.4,1.4c.2.4.6.6,1.2.6ZM57.8,549.6c.7,0,1.2.2,1.7.7.5.4.7,1.1.7,2s-.2,1.5-.6,2.1c-.4.5-1,.8-1.9.8s-1.3-.2-1.7-.7c-.4-.5-.6-1.1-.6-2s.2-1.6.7-2.1c.4-.5,1-.8,1.8-.8ZM61.3,547.8h.9v7.2h-.9v-7.2ZM63.6,547.8h.9v7.2h-.9v-7.2ZM67.9,549.7c.4,0,.7,0,1.1.3.3.2.6.4.8.7.2.3.3.6.4.9,0,.2,0,.6,0,1.2h-3.8c0,.5.1,1,.4,1.3.2.3.6.5,1.1.5s.8-.2,1.1-.5c.2-.2.3-.4.3-.6h.9c0,.2,0,.4-.2.6-.1.2-.3.4-.4.6-.3.3-.6.4-1,.5-.2,0-.5,0-.7,0-.7,0-1.2-.2-1.7-.7-.5-.5-.7-1.1-.7-2s.2-1.5.7-2c.5-.5,1.1-.8,1.8-.8ZM69.3,552c0-.4-.1-.7-.2-.9-.2-.4-.6-.6-1.2-.6s-.7.1-1,.4c-.3.3-.4.7-.4,1.1h2.9ZM73.2,549.7c.4,0,.8.1,1.1.3.2.1.3.3.5.5v-.7h.8v4.8c0,.7,0,1.2-.3,1.6-.4.7-1.1,1.1-2.1,1.1s-1-.1-1.4-.4c-.4-.3-.6-.6-.6-1.2h.9c0,.2.1.4.3.5.2.2.5.3.9.3.7,0,1.1-.2,1.3-.7.1-.3.2-.8.2-1.5-.2.3-.4.5-.6.6s-.6.2-1,.2-1.1-.2-1.5-.6c-.4-.4-.6-1.1-.6-2s.2-1.6.6-2.1c.4-.5.9-.7,1.6-.7ZM74.8,552.4c0-.6-.1-1.1-.4-1.4-.3-.3-.6-.5-1-.5-.6,0-1,.3-1.3.9-.1.3-.2.7-.2,1.2s.1,1,.4,1.3c.2.3.6.5,1,.5.6,0,1.1-.3,1.3-.9.1-.3.2-.7.2-1.1ZM79.1,549.7c.4,0,.7,0,1.1.3.3.2.6.4.8.7.2.3.3.6.4.9,0,.2,0,.6,0,1.2h-3.8c0,.5.1,1,.4,1.3.2.3.6.5,1.1.5s.8-.2,1.1-.5c.2-.2.3-.4.3-.6h.9c0,.2,0,.4-.2.6-.1.2-.3.4-.4.6-.3.3-.6.4-1,.5-.2,0-.5,0-.7,0-.7,0-1.2-.2-1.7-.7-.5-.5-.7-1.1-.7-2s.2-1.5.7-2c.5-.5,1.1-.8,1.8-.8ZM80.5,552c0-.4-.1-.7-.2-.9-.2-.4-.6-.6-1.2-.6s-.7.1-1,.4c-.3.3-.4.7-.4,1.1h2.9ZM88.4,547.6c.9,0,1.6.2,2.1.7.5.5.8,1,.8,1.6h-.9c-.1-.5-.3-.8-.6-1.1-.3-.3-.8-.4-1.3-.4s-1.3.2-1.7.7c-.4.5-.6,1.3-.6,2.3s.2,1.5.6,2c.4.5,1,.8,1.8.8s1.3-.3,1.6-.8c.2-.3.3-.7.4-1.1h.9c0,.8-.4,1.4-.8,1.9-.6.6-1.3.9-2.3.9s-1.5-.3-2.1-.8c-.7-.7-1.1-1.7-1.1-3.1s.3-1.9.8-2.6c.6-.7,1.4-1.1,2.5-1.1ZM94.5,554.4c.6,0,1-.2,1.2-.7.2-.4.3-.9.3-1.5s0-.9-.2-1.2c-.2-.5-.7-.7-1.3-.7s-.9.2-1.2.6c-.2.4-.4.9-.4,1.5s.1,1,.4,1.4c.2.4.6.6,1.2.6ZM94.6,549.6c.7,0,1.2.2,1.7.7.5.4.7,1.1.7,2s-.2,1.5-.6,2.1c-.4.5-1,.8-1.9.8s-1.3-.2-1.7-.7c-.4-.5-.6-1.1-.6-2s.2-1.6.7-2.1c.4-.5,1-.8,1.8-.8ZM100.2,554.4c.4,0,.8-.2,1-.5.3-.3.4-.9.4-1.5s0-.8-.2-1.1c-.2-.6-.6-.9-1.2-.9s-1,.3-1.2.9c-.1.3-.2.7-.2,1.2s0,.7.2,1c.2.5.6.8,1.2.8ZM98,549.8h.9v.7c.2-.2.4-.4.6-.6.3-.2.6-.3,1-.3.6,0,1.1.2,1.5.7.4.5.6,1.1.6,1.9s-.3,2-.9,2.4c-.4.3-.8.5-1.3.5s-.7,0-1-.3c-.2,0-.3-.3-.5-.5v2.7h-.9v-7.3ZM105.8,549.7c.4,0,.7,0,1.1.3.3.2.6.4.8.7.2.3.3.6.4.9,0,.2,0,.6,0,1.2h-3.8c0,.5.1,1,.4,1.3.2.3.6.5,1.1.5s.8-.2,1.1-.5c.2-.2.3-.4.3-.6h.9c0,.2,0,.4-.2.6-.1.2-.3.4-.4.6-.3.3-.6.4-1,.5-.2,0-.4,0-.7,0-.7,0-1.2-.2-1.7-.7-.5-.5-.7-1.1-.7-2s.2-1.5.7-2c.5-.5,1.1-.8,1.8-.8ZM107.2,552c0-.4-.1-.7-.2-.9-.2-.4-.6-.6-1.2-.6s-.7.1-1,.4c-.3.3-.4.7-.4,1.1h2.9ZM109.2,549.8h.8v.7c.2-.3.5-.5.8-.7.3-.1.6-.2.9-.2.7,0,1.2.3,1.5.8.1.3.2.7.2,1.2v3.4h-.9v-3.3c0-.3,0-.6-.1-.8-.2-.3-.4-.5-.9-.5s-.4,0-.5,0c-.2,0-.5.2-.6.4-.1.2-.2.4-.3.5,0,.2,0,.4,0,.8v2.7h-.9v-5.2ZM114.7,547.8h.9v2.7c.2-.3.4-.5.6-.6.3-.2.6-.3,1.1-.3.8,0,1.3.3,1.5.8.1.3.2.7.2,1.2v3.4h-.9v-3.3c0-.4,0-.7-.1-.8-.2-.3-.5-.4-.9-.4s-.7.1-1,.4c-.3.2-.4.7-.4,1.4v2.8h-.9v-7.2ZM121,553.6c0,.3,0,.5.3.6.2.1.4.2.7.2s.6,0,.9-.2c.5-.2.7-.6.7-1.2v-.7c-.1,0-.2.1-.4.2-.2,0-.3,0-.5,0h-.5c-.3.1-.6.2-.7.3-.3.2-.4.4-.4.7ZM123.1,551.8c.2,0,.3-.1.4-.3,0,0,0-.2,0-.3,0-.3-.1-.5-.3-.6-.2-.1-.5-.2-.9-.2s-.8.1-1,.4c-.1.1-.2.3-.2.6h-.8c0-.6.2-1.1.6-1.3.4-.3.9-.4,1.4-.4s1.1.1,1.5.4c.4.2.6.6.6,1.1v3c0,0,0,.2,0,.2,0,0,.1,0,.2,0s0,0,.1,0c0,0,.1,0,.2,0v.6c-.1,0-.2,0-.3,0,0,0-.2,0-.3,0-.3,0-.5-.1-.7-.3,0-.1-.1-.3-.2-.5-.2.2-.4.4-.8.6-.3.2-.7.3-1.1.3s-.9-.1-1.2-.4c-.3-.3-.5-.7-.5-1.1s.2-.9.5-1.1.7-.4,1.2-.5l1.4-.2ZM127.7,549.7c.4,0,.8.1,1.1.3.2.1.3.3.5.5v-.7h.8v4.8c0,.7,0,1.2-.3,1.6-.4.7-1.1,1.1-2.1,1.1s-1-.1-1.4-.4c-.4-.3-.6-.6-.6-1.2h.9c0,.2.1.4.3.5.2.2.5.3.9.3.7,0,1.1-.2,1.3-.7.1-.3.2-.8.2-1.5-.2.3-.4.5-.6.6-.2.1-.6.2-1,.2s-1.1-.2-1.5-.6c-.4-.4-.6-1.1-.6-2s.2-1.6.6-2.1c.4-.5.9-.7,1.6-.7ZM129.3,552.4c0-.6-.1-1.1-.4-1.4-.3-.3-.6-.5-1-.5-.6,0-1,.3-1.3.9-.1.3-.2.7-.2,1.2s.1,1,.4,1.3c.2.3.6.5,1,.5.6,0,1.1-.3,1.3-.9.1-.3.2-.7.2-1.1ZM133.6,549.7c.4,0,.7,0,1.1.3.3.2.6.4.8.7.2.3.3.6.4.9,0,.2,0,.6,0,1.2h-3.8c0,.5.1,1,.4,1.3.2.3.6.5,1.1.5s.8-.2,1.1-.5c.2-.2.3-.4.3-.6h.9c0,.2,0,.4-.2.6-.1.2-.3.4-.4.6-.3.3-.6.4-1,.5-.2,0-.5,0-.7,0-.7,0-1.2-.2-1.7-.7-.5-.5-.7-1.1-.7-2s.2-1.5.7-2c.5-.5,1.1-.8,1.8-.8ZM135,552c0-.4-.1-.7-.2-.9-.2-.4-.6-.6-1.2-.6s-.7.1-1,.4c-.3.3-.4.7-.4,1.1h2.9ZM137,549.8h.8v.7c.2-.3.5-.5.8-.7.3-.1.6-.2.9-.2.7,0,1.2.3,1.5.8.1.3.2.7.2,1.2v3.4h-.9v-3.3c0-.3,0-.6-.1-.8-.2-.3-.4-.5-.8-.5s-.4,0-.5,0c-.2,0-.5.2-.6.4-.1.2-.2.4-.3.5,0,.2,0,.4,0,.8v2.7h-.9v-5.2Z"/>
  <path class="st1" d="M.7,564.3c0-.3,0-.7.2-.9.1-.3.3-.5.5-.7.2-.2.4-.4.7-.5.3-.1.6-.2,1-.2s.7,0,.9.2c.3.1.5.2.7.4.2.2.3.4.4.6,0,.2.1.5.1.8s0,.6-.2.8c0,.2-.2.5-.4.6-.2.2-.4.4-.6.5-.2.1-.4.3-.7.4-.2.1-.4.2-.7.4-.2.1-.4.2-.6.4-.1,0-.2.2-.3.3-.1,0-.2.2-.3.3,0,.1-.2.2-.2.4,0,.1,0,.3,0,.5h3.9v.5H.5c0-.3,0-.6.1-.9,0-.3.2-.5.4-.8.2-.3.5-.5.8-.7.3-.2.5-.4.8-.5.3-.2.5-.3.7-.4.2-.1.4-.3.6-.4.2-.2.3-.3.4-.5,0-.2.1-.4.1-.7s0-.4-.1-.6-.2-.3-.3-.5c-.1-.1-.3-.2-.5-.3-.2,0-.4-.1-.6-.1s-.4,0-.6.2c-.2,0-.4.2-.5.4-.1.2-.2.3-.3.6,0,.2-.1.4,0,.7h-.7ZM10.1,565.5c0-.4,0-.8,0-1.1,0-.4-.1-.7-.2-1-.1-.3-.3-.5-.5-.7-.2-.2-.5-.3-.9-.3s-.6,0-.9.3c-.2.2-.4.4-.5.7-.1.3-.2.6-.3,1,0,.4,0,.8,0,1.1s0,.9,0,1.2c0,.4.2.7.3.9.1.3.3.5.5.6.2.1.5.2.9.2s.7,0,.9-.3c.2-.2.4-.4.5-.7.1-.3.2-.6.2-1,0-.4,0-.7,0-1.1ZM8.3,562c.3,0,.6,0,.9.2.3.1.5.2.6.4.2.2.3.4.4.6.1.2.2.5.3.8,0,.3.1.5.1.8,0,.3,0,.6,0,.8,0,.5,0,.9-.1,1.3,0,.4-.2.8-.4,1.1-.2.3-.4.6-.7.8-.3.2-.7.3-1.2.3s-.9,0-1.2-.3c-.3-.2-.6-.5-.7-.8-.2-.3-.3-.7-.4-1.2,0-.4,0-.9,0-1.4s0-.9,0-1.3c0-.4.2-.8.3-1.1.2-.3.4-.6.7-.8.3-.2.7-.3,1.2-.3ZM14.1,563.8h-1.8v-.4c.3,0,.5,0,.7,0,.2,0,.4,0,.6-.2.2,0,.3-.2.4-.4.1-.2.2-.4.2-.7h.5v7h-.6v-5.2ZM17.8,567.5c0,.4.2.7.4.9.2.2.5.3.9.3s.8-.1,1-.3c.3-.2.4-.5.6-.8.1-.3.2-.7.3-1,0-.4,0-.7,0-1h0c-.2.3-.5.6-.8.8-.3.2-.7.3-1.1.3s-.6,0-.9-.2c-.3-.1-.5-.3-.7-.5-.2-.2-.3-.4-.4-.7-.1-.3-.1-.6-.1-.9s0-.6.1-.9c0-.3.2-.5.4-.7.2-.2.4-.4.7-.5.3-.1.6-.2,1-.2s.9,0,1.2.3c.3.2.6.4.8.8.2.3.3.7.4,1.1s.1.9.1,1.4,0,1.1-.2,1.6c-.1.4-.3.8-.5,1.1-.2.3-.5.5-.8.7-.3.2-.7.2-1,.2s-.5,0-.8-.1c-.2,0-.5-.2-.6-.3-.2-.1-.3-.3-.4-.5-.1-.2-.2-.5-.2-.8h.6ZM19.3,562.5c-.5,0-.9.2-1.2.5-.3.3-.4.8-.4,1.3s.1,1,.4,1.3c.3.3.7.5,1.2.5s.5,0,.7-.1c.2,0,.4-.2.5-.4.1-.2.2-.3.3-.5,0-.2.1-.4.1-.7,0-.5-.1-.9-.4-1.3-.3-.3-.7-.5-1.2-.5ZM27.9,566.1v.6h-2.5v-.6h2.5ZM31.8,564.3c0-.3,0-.7.2-.9.1-.3.3-.5.5-.7.2-.2.4-.4.7-.5.3-.1.6-.2,1-.2s.7,0,.9.2c.3.1.5.2.7.4.2.2.3.4.4.6,0,.2.1.5.1.8s0,.6-.2.8c0,.2-.2.5-.4.6-.2.2-.4.4-.6.5-.2.1-.4.3-.7.4-.2.1-.5.2-.7.4-.2.1-.4.2-.6.4-.1,0-.2.2-.3.3-.1,0-.2.2-.3.3,0,.1-.2.2-.2.4,0,.1,0,.3,0,.5h3.9v.5h-4.6c0-.3,0-.6.1-.9,0-.3.2-.5.4-.8.2-.3.5-.5.8-.7.3-.2.5-.4.8-.5.3-.2.5-.3.7-.4.2-.1.4-.3.6-.4.2-.2.3-.3.4-.5,0-.2.2-.4.2-.7s0-.4-.1-.6c0-.2-.2-.3-.3-.5s-.3-.2-.5-.3c-.2,0-.4-.1-.6-.1s-.4,0-.6.2c-.2,0-.3.2-.5.4-.1.2-.2.3-.3.6,0,.2-.1.4,0,.7h-.7ZM41.2,565.5c0-.4,0-.8,0-1.1,0-.4-.1-.7-.2-1s-.3-.5-.5-.7c-.2-.2-.5-.3-.9-.3s-.6,0-.9.3c-.2.2-.4.4-.5.7-.1.3-.2.6-.3,1,0,.4,0,.8,0,1.1s0,.9,0,1.2c0,.4.2.7.3.9.1.3.3.5.5.6.2.1.5.2.9.2s.7,0,.9-.3c.2-.2.4-.4.5-.7.1-.3.2-.6.2-1,0-.4,0-.7,0-1.1ZM39.5,562c.3,0,.6,0,.9.2.3.1.5.2.6.4.2.2.3.4.4.6.1.2.2.5.3.8,0,.3,0,.5.1.8s0,.6,0,.8c0,.5,0,.9,0,1.3s-.2.8-.4,1.1c-.2.3-.4.6-.7.8-.3.2-.7.3-1.2.3s-.9,0-1.2-.3c-.3-.2-.5-.5-.7-.8-.2-.3-.3-.7-.4-1.2,0-.4-.1-.9-.1-1.4s0-.9,0-1.3c0-.4.2-.8.3-1.1.2-.3.4-.6.7-.8.3-.2.7-.3,1.2-.3ZM42.9,564.3c0-.3,0-.7.2-.9.1-.3.3-.5.5-.7.2-.2.4-.4.7-.5.3-.1.6-.2,1-.2s.7,0,.9.2c.3.1.5.2.7.4.2.2.3.4.4.6,0,.2.1.5.1.8s0,.6-.2.8c0,.2-.2.5-.4.6-.2.2-.4.4-.6.5-.2.1-.4.3-.7.4-.2.1-.5.2-.7.4-.2.1-.4.2-.6.4-.1,0-.2.2-.3.3-.1,0-.2.2-.3.3,0,.1-.2.2-.2.4,0,.1,0,.3,0,.5h3.9v.5h-4.6c0-.3,0-.6.1-.9,0-.3.2-.5.4-.8.2-.3.5-.5.8-.7.3-.2.5-.4.8-.5.3-.2.5-.3.7-.4.2-.1.4-.3.6-.4.2-.2.3-.3.4-.5,0-.2.1-.4.1-.7s0-.4-.1-.6c0-.2-.2-.3-.3-.5-.1-.1-.3-.2-.5-.3-.2,0-.4-.1-.6-.1s-.4,0-.6.2c-.2,0-.3.2-.5.4-.1.2-.2.3-.3.6,0,.2-.1.4,0,.7h-.7ZM48.5,564.3c0-.3,0-.7.2-.9.1-.3.3-.5.5-.7.2-.2.4-.4.7-.5.3-.1.6-.2.9-.2s.7,0,.9.2c.3.1.5.2.7.4.2.2.3.4.4.6,0,.2.1.5.1.8s0,.6-.2.8c-.1.2-.2.5-.4.6-.2.2-.4.4-.6.5-.2.1-.4.3-.7.4-.2.1-.5.2-.7.4-.2.1-.4.2-.6.4-.1,0-.2.2-.3.3-.1,0-.2.2-.3.3,0,.1-.2.2-.2.4,0,.1,0,.3,0,.5h3.9v.5h-4.6c0-.3,0-.6.1-.9,0-.3.2-.5.4-.8.2-.3.5-.5.8-.7.3-.2.5-.4.8-.5.3-.2.5-.3.7-.4.2-.1.4-.3.6-.4.2-.2.3-.3.4-.5.1-.2.2-.4.2-.7s0-.4-.1-.6c0-.2-.2-.3-.3-.5s-.3-.2-.5-.3c-.2,0-.4-.1-.6-.1s-.4,0-.6.2c-.2,0-.4.2-.5.4-.1.2-.2.3-.3.6,0,.2-.1.4,0,.7h-.7Z"/>
  <path class="st1" d="M262.4,350v-1.3h8.4v1.3h-8.4ZM267.5,341l5.9,12h-1.6l-5.6-11.5h.8l-5.6,11.5h-1.6l5.9-12h1.8ZM283.2,350.4c0,.6-.2,1.1-.5,1.5-.3.4-.8.8-1.5,1-.7.2-1.5.4-2.4.4s-1.8-.1-2.6-.4c-.7-.3-1.3-.7-1.7-1.2-.4-.5-.6-1.1-.7-1.7h1.5c0,.4.3.8.6,1.1.3.3.7.5,1.2.7.5.2,1.1.3,1.7.3.9,0,1.7-.1,2.2-.4.5-.3.8-.7.8-1.2s-.2-.7-.5-.8c-.3-.2-1-.3-1.9-.4l-1.7-.2c-.9,0-1.6-.2-2.1-.5-.5-.2-.9-.5-1.1-.9-.2-.4-.3-.7-.3-1.2s.2-1.1.5-1.5c.4-.4.9-.7,1.5-.9.6-.2,1.4-.3,2.2-.3s1.7.1,2.4.4c.7.3,1.3.6,1.7,1.1.4.5.6,1,.7,1.6h-1.5c0-.3-.2-.7-.5-.9-.3-.3-.6-.5-1.1-.7-.5-.2-1-.3-1.7-.3s-1.5.1-2,.4c-.5.2-.7.6-.7,1.1s.2.6.5.8c.3.2.9.3,1.6.4l2,.2c.9,0,1.6.2,2.1.4.5.2.9.5,1.1.8.2.3.3.8.3,1.2ZM293.8,350.4c0,.6-.2,1.1-.5,1.5-.3.4-.8.8-1.5,1-.7.2-1.5.4-2.4.4s-1.8-.1-2.6-.4c-.7-.3-1.3-.7-1.7-1.2-.4-.5-.6-1.1-.7-1.7h1.5c0,.4.3.8.6,1.1.3.3.7.5,1.2.7.5.2,1.1.3,1.7.3.9,0,1.7-.1,2.2-.4.5-.3.8-.7.8-1.2s-.2-.7-.5-.8c-.3-.2-1-.3-1.9-.4l-1.7-.2c-.9,0-1.6-.2-2.1-.5-.5-.2-.9-.5-1.1-.9-.2-.4-.3-.7-.3-1.2s.2-1.1.5-1.5c.4-.4.9-.7,1.5-.9.6-.2,1.4-.3,2.2-.3s1.7.1,2.4.4c.7.3,1.3.6,1.7,1.1.4.5.6,1,.7,1.6h-1.5c0-.3-.2-.7-.5-.9-.3-.3-.6-.5-1.1-.7-.5-.2-1-.3-1.7-.3s-1.5.1-2,.4c-.5.2-.7.6-.7,1.1s.2.6.5.8c.3.2.9.3,1.6.4l2,.2c.9,0,1.6.2,2.1.4.5.2.9.5,1.1.8.2.3.3.8.3,1.2ZM295.6,344h.7c0,.1.7,0,.7,0v9h-1.5v-9ZM296.4,342.6c-.3,0-.6,0-.8-.3-.2-.2-.3-.4-.3-.7s.1-.5.3-.7c.2-.2.5-.3.8-.3s.6,0,.8.3c.2.2.3.4.3.7s-.1.5-.3.7c-.2.2-.5.3-.8.3ZM308.3,350.4c0,.6-.2,1.1-.5,1.5-.3.4-.8.8-1.5,1-.7.2-1.5.4-2.4.4s-1.8-.1-2.6-.4c-.7-.3-1.3-.7-1.7-1.2-.4-.5-.6-1.1-.7-1.7h1.5c0,.4.2.8.6,1.1.3.3.7.5,1.2.7.5.2,1.1.3,1.7.3.9,0,1.7-.1,2.2-.4.5-.3.8-.7.8-1.2s-.2-.7-.5-.8c-.3-.2-1-.3-1.9-.4l-1.7-.2c-.9,0-1.6-.2-2.1-.5-.5-.2-.9-.5-1.1-.9-.2-.4-.3-.7-.3-1.2s.2-1.1.5-1.5c.4-.4.9-.7,1.5-.9.6-.2,1.4-.3,2.2-.3s1.7.1,2.4.4c.7.3,1.3.6,1.7,1.1.4.5.6,1,.7,1.6h-1.5c0-.3-.2-.7-.5-.9-.3-.3-.6-.5-1.1-.7-.5-.2-1.1-.3-1.7-.3s-1.5.1-2,.4c-.5.2-.7.6-.7,1.1s.2.6.5.8c.3.2.9.3,1.6.4l2,.2c.9,0,1.6.2,2.1.4.5.2.9.5,1.1.8.2.3.3.8.3,1.2ZM308.9,345.2v-.7l2-.4.6-2.4h.9v2.3h4.4v1.2h-4.4v4.6c0,.8.2,1.4.5,1.7.4.3.9.5,1.7.5s.9,0,1.3-.2c.4-.1.7-.3,1.1-.5v1.3c-.3.2-.6.3-1.1.4-.5.1-1,.2-1.5.2-.8,0-1.5-.1-2-.4-.5-.3-.8-.7-1.1-1.2-.2-.5-.3-1-.3-1.7v-4.8h-2ZM326.8,353l-.3-3.4.4-1.1-.4-1.1.3-3.4h1.5l-.4,4.5.4,4.5h-1.5ZM327.3,348.5c-.2.9-.6,1.8-1.1,2.5-.5.7-1.1,1.3-1.8,1.6-.7.4-1.4.6-2.3.6s-1.7-.2-2.4-.6c-.7-.4-1.2-1-1.6-1.7-.4-.7-.6-1.5-.6-2.5s.2-1.8.6-2.5c.4-.7.9-1.3,1.6-1.6.7-.4,1.5-.6,2.4-.6s1.6.2,2.3.6c.7.4,1.3.9,1.8,1.6.5.7.8,1.5,1.1,2.5ZM319.2,348.5c0,.7.1,1.3.4,1.8.3.5.7.9,1.2,1.2.5.3,1.1.4,1.7.4s1.2-.1,1.8-.4c.5-.3,1-.7,1.4-1.2.4-.5.8-1.1,1-1.8-.3-.7-.6-1.3-1-1.8-.4-.5-.9-.9-1.4-1.2-.5-.3-1.1-.4-1.8-.4s-1.2.1-1.7.4c-.5.3-.9.7-1.2,1.2-.3.5-.4,1.1-.4,1.8ZM330,344h1.5l.5,3.1v6h-1.5v-6.2l-.5-2.8ZM335.8,343.8c.8,0,1.6.2,2.1.5.6.3,1,.8,1.3,1.5.3.6.5,1.4.5,2.3v5h-1.5v-4.7c0-1.1-.3-1.9-.8-2.4-.5-.6-1.2-.8-2.2-.8s-1.2.1-1.7.4c-.5.3-.9.7-1.2,1.2-.3.5-.4,1.1-.4,1.8l-.6-.4c0-.9.3-1.7.7-2.3s.9-1.2,1.5-1.5c.6-.4,1.3-.5,2.1-.5ZM340.7,345.2v-.7l2-.4.6-2.4h.9v2.3h4.4v1.2h-4.4v4.6c0,.8.2,1.4.5,1.7.4.3.9.5,1.7.5s.9,0,1.3-.2c.4-.1.7-.3,1.1-.5v1.3c-.3.2-.6.3-1.1.4-.5.1-1,.2-1.5.2-.8,0-1.5-.1-2-.4-.5-.3-.8-.7-1.1-1.2-.2-.5-.3-1-.3-1.7v-4.8h-2ZM260.3,369.1h1.5c0,.6.3,1.1.7,1.5.4.4.9.8,1.5,1,.6.2,1.3.3,2.1.3,1.2,0,2.2-.2,2.9-.6.7-.4,1.1-1,1.1-1.7s-.2-1-.7-1.2c-.4-.3-1.2-.5-2.3-.6l-2.3-.3c-1.5-.2-2.5-.5-3.2-1-.6-.5-1-1.2-1-2.1s.2-1.3.6-1.9c.4-.5,1-.9,1.8-1.2.8-.3,1.7-.4,2.7-.4s2,.2,2.8.5c.8.3,1.5.7,1.9,1.3.5.6.7,1.2.8,2h-1.5c0-.5-.3-.9-.6-1.3-.3-.4-.8-.7-1.4-.9-.6-.2-1.2-.3-2-.3-1.1,0-2,.2-2.6.6-.7.4-1,.9-1,1.6s.2.9.6,1.2c.4.3,1.2.5,2.2.6l2.3.3c1.1.1,1.9.3,2.5.6.6.2,1.1.6,1.4,1,.3.4.4.9.4,1.6s-.2,1.4-.7,2c-.4.6-1.1,1-1.9,1.3-.8.3-1.8.4-2.9.4s-2.1-.2-2.9-.5c-.9-.4-1.5-.8-2-1.4-.5-.6-.8-1.3-.8-2.1ZM272.3,365.2v-.7l2-.4.6-2.4h.9v2.3h4.4v1.2h-4.4v4.6c0,.8.2,1.4.5,1.7.4.3.9.5,1.7.5s.9,0,1.3-.2c.4-.1.7-.3,1.1-.5v1.3c-.3.2-.6.3-1.1.4-.5.1-1,.2-1.5.2-.8,0-1.5-.1-2-.4-.5-.3-.8-.7-1.1-1.2-.2-.5-.3-1-.3-1.7v-4.8h-2ZM283.7,375.8c-.5,0-.9,0-1.2-.2-.4-.1-.7-.3-1.1-.5v-1.2c.4.2.7.4,1,.5s.7.2,1.1.2.9-.1,1.2-.3c.3-.2.6-.5.8-1l4.5-9.3h1.6l-4.9,9.9c-.2.5-.5.8-.8,1.1-.3.3-.6.5-1,.7-.4.1-.8.2-1.2.2ZM285.2,372.7l-4.3-8.7h1.6l4.1,8.7h-1.5ZM293,360.7h1.5v12.3h-1.5v-12.3ZM296.8,364h.7c0,.1.7,0,.7,0v9h-1.5v-9ZM297.6,362.6c-.3,0-.6,0-.8-.3-.2-.2-.3-.4-.3-.7s.1-.5.3-.7c.2-.2.5-.3.8-.3s.6,0,.8.3c.2.2.3.4.3.7s-.1.5-.3.7c-.2.2-.5.3-.8.3ZM309.5,370.4c0,.6-.2,1.1-.5,1.5-.3.4-.8.8-1.5,1-.7.2-1.5.4-2.4.4s-1.8-.1-2.6-.4c-.7-.3-1.3-.7-1.7-1.2-.4-.5-.6-1.1-.7-1.7h1.5c0,.4.3.8.6,1.1.3.3.7.5,1.2.7.5.2,1.1.3,1.7.3.9,0,1.7-.1,2.2-.4.5-.3.8-.7.8-1.2s-.2-.7-.5-.8c-.3-.2-1-.3-1.9-.4l-1.7-.2c-.9,0-1.6-.2-2.1-.5-.5-.2-.9-.5-1.1-.9-.2-.4-.3-.7-.3-1.2s.2-1.1.5-1.5c.4-.4.9-.7,1.5-.9.6-.2,1.4-.3,2.2-.3s1.7.1,2.4.4c.7.3,1.3.6,1.7,1.1.4.5.6,1,.7,1.6h-1.5c0-.3-.2-.7-.5-.9-.3-.3-.6-.5-1.1-.7-.5-.2-1.1-.3-1.7-.3s-1.5.1-2,.4c-.5.2-.7.6-.7,1.1s.2.6.5.8c.3.2.9.3,1.6.4l2,.2c.9,0,1.6.2,2.1.4.5.2.9.5,1.1.8.2.3.3.8.3,1.2ZM310.1,365.2v-.7l2-.4.6-2.4h.9v2.3h4.4v1.2h-4.4v4.6c0,.8.2,1.4.5,1.7.4.3.9.5,1.7.5s.9,0,1.3-.2c.4-.1.7-.3,1.1-.5v1.3c-.3.2-.6.3-1.1.4-.5.1-1,.2-1.5.2-.8,0-1.5-.1-2-.4-.5-.3-.8-.7-1.1-1.2-.2-.5-.3-1-.3-1.7v-4.8h-2Z"/>
  <path class="st1" d="M260.9,385.8l1.4,5.8,1.6-5.8h1.1l1.6,5.8,1.4-5.8h1.1l-1.9,7.2h-1l-1.7-5.9-1.7,5.9h-1l-1.9-7.2h1.1ZM270,385.8h5.2v.9h-4.3v2.2h4v.8h-4v2.4h4.4v.9h-5.3v-7.2ZM276.5,385.8h1v6.3h3.6v.9h-4.6v-7.2ZM286.6,385.8v.9h-2.4v6.3h-1v-6.3h-2.4v-.9h5.8ZM292.2,388.6c.3-.2.5-.4.6-.5.2-.2.3-.5.3-.7s0-.4-.2-.5c-.1-.2-.3-.2-.6-.2-.4,0-.6.1-.8.4,0,.1-.1.3-.1.4s0,.4.2.6c.1.2.3.4.5.7ZM292,392.4c.4,0,.7,0,.9-.2.3-.2.5-.4.6-.6l-1.6-2c-.5.3-.8.5-.9.7-.2.2-.3.5-.3.9s.1.7.4.9c.3.2.6.3.9.3ZM291.4,389c-.3-.3-.5-.6-.6-.9-.1-.2-.2-.5-.2-.7,0-.5.2-.8.5-1.1.3-.3.7-.5,1.3-.5s.9.1,1.2.4c.3.3.4.6.4,1s-.1.9-.4,1.2c-.2.2-.5.4-.9.7l1.3,1.6c0-.3.1-.5.2-.6,0-.1,0-.3.1-.5h.8c0,.5-.2.9-.3,1.3-.2.4-.2.6-.2.5l1.3,1.5h-1.1l-.7-.8c-.3.3-.5.5-.7.6-.4.2-.8.4-1.3.4-.7,0-1.3-.2-1.6-.6-.3-.4-.5-.9-.5-1.4s.2-1,.5-1.4c.2-.2.6-.5,1.1-.8ZM302.2,388.9c.4,0,.7,0,1-.2.4-.2.5-.5.5-1s-.2-.8-.6-.9c-.2,0-.5-.1-1-.1h-1.7v2.2h1.8ZM302.6,392.2c.6,0,1-.2,1.3-.5.2-.2.2-.5.2-.8,0-.5-.2-.9-.7-1.1-.2-.1-.6-.2-1-.2h-1.9v2.5h2.1ZM299.5,385.8h3.1c.8,0,1.4.3,1.8.8.2.3.3.6.3,1s-.1.8-.4,1.1c-.1.2-.3.3-.6.4.4.1.6.3.8.5.3.3.5.7.5,1.3s-.1.9-.4,1.3c-.4.6-1.1.8-2.1.8h-3v-7.2ZM306.1,387.8h.9v5.2h-.9v-5.2ZM306.1,385.8h.9v1h-.9v-1ZM308.3,385.8h.9v7.2h-.9v-7.2ZM311.1,390.4c0,.6.1,1,.4,1.4.2.4.6.6,1.1.6s.7-.2,1-.5c.3-.4.4-.9.4-1.5s-.1-1.1-.4-1.5c-.3-.3-.6-.5-1-.5s-.8.2-1.1.5c-.3.3-.4.8-.4,1.5ZM312.4,387.7c.4,0,.7,0,1,.3.2,0,.3.3.5.5v-2.6h.8v7.2h-.8v-.7c-.2.3-.4.6-.7.7-.3.1-.6.2-1,.2-.6,0-1.1-.2-1.5-.7-.4-.5-.6-1.1-.6-2s.2-1.4.6-2c.4-.6.9-.8,1.7-.8Z"/>
  <path class="st1" d="M260.4,400.3c0-.3,0-.7.2-.9.1-.3.3-.5.5-.7.2-.2.4-.4.7-.5.3-.1.6-.2,1-.2s.7,0,.9.2c.3.1.5.2.7.4.2.2.3.4.4.6,0,.2.1.5.1.8s0,.6-.2.8c0,.2-.2.5-.4.6-.2.2-.4.4-.6.5-.2.1-.4.3-.7.4-.2.1-.4.2-.7.4s-.4.2-.6.4c-.1,0-.2.2-.3.3-.1,0-.2.2-.3.3s-.2.2-.2.4c0,.1,0,.3,0,.4h3.9v.5h-4.6c0-.3,0-.6.1-.9,0-.3.2-.5.4-.8.2-.3.5-.5.8-.7.3-.2.5-.4.8-.5.3-.2.5-.3.7-.4.2-.1.4-.3.6-.4.2-.2.3-.3.4-.5.1-.2.2-.4.2-.7s0-.4-.1-.6c0-.2-.2-.3-.3-.5-.1-.1-.3-.2-.5-.3-.2,0-.4-.1-.6-.1s-.4,0-.6.2c-.2,0-.4.2-.5.4-.1.2-.2.3-.3.6,0,.2-.1.4,0,.7h-.7ZM269.7,401.5c0-.4,0-.8,0-1.1,0-.4-.1-.7-.2-1-.1-.3-.3-.5-.5-.7-.2-.2-.5-.3-.9-.3s-.6,0-.9.3c-.2.2-.4.4-.5.7-.1.3-.2.6-.3,1,0,.4,0,.8,0,1.1s0,.9,0,1.2c0,.4.2.7.3.9.1.3.3.5.5.6.2.1.5.2.9.2s.7,0,.9-.3c.2-.2.4-.4.5-.7s.2-.6.2-1c0-.4,0-.7,0-1.1ZM268,398c.3,0,.6,0,.9.2.3.1.5.2.6.4.2.2.3.4.4.6.1.2.2.5.3.8,0,.3.1.5.1.8,0,.3,0,.6,0,.8,0,.5,0,.9-.1,1.3,0,.4-.2.8-.4,1.1-.2.3-.4.6-.7.8-.3.2-.7.3-1.2.3s-.9,0-1.2-.3c-.3-.2-.5-.5-.7-.8-.2-.3-.3-.7-.4-1.1,0-.4-.1-.9-.1-1.4s0-.9,0-1.3c0-.4.2-.8.3-1.1.2-.3.4-.6.7-.8.3-.2.7-.3,1.2-.3ZM271.5,400.3c0-.3,0-.7.2-.9.1-.3.3-.5.5-.7.2-.2.4-.4.7-.5.3-.1.6-.2.9-.2s.7,0,.9.2c.3.1.5.2.7.4.2.2.3.4.4.6,0,.2.1.5.1.8s0,.6-.2.8c-.1.2-.2.5-.4.6-.2.2-.4.4-.6.5-.2.1-.4.3-.7.4-.2.1-.5.2-.7.4s-.4.2-.6.4c-.1,0-.2.2-.3.3-.1,0-.2.2-.3.3,0,.1-.2.2-.2.4,0,.1,0,.3,0,.4h3.9v.5h-4.6c0-.3,0-.6.1-.9,0-.3.2-.5.4-.8.2-.3.5-.5.8-.7.3-.2.5-.4.8-.5.3-.2.5-.3.7-.4.2-.1.4-.3.6-.4.2-.2.3-.3.4-.5s.1-.4.1-.7,0-.4-.1-.6c0-.2-.2-.3-.3-.5-.1-.1-.3-.2-.5-.3-.2,0-.4-.1-.6-.1s-.4,0-.6.2c-.2,0-.3.2-.5.4-.1.2-.2.3-.3.6,0,.2-.1.4,0,.7h-.7ZM277,400.3c0-.3,0-.7.2-.9.1-.3.3-.5.5-.7.2-.2.4-.4.7-.5.3-.1.6-.2.9-.2s.7,0,.9.2c.3.1.5.2.7.4.2.2.3.4.4.6,0,.2.1.5.1.8s0,.6-.2.8c-.1.2-.2.5-.4.6-.2.2-.4.4-.6.5-.2.1-.4.3-.7.4-.2.1-.5.2-.7.4s-.4.2-.6.4c-.1,0-.2.2-.3.3-.1,0-.2.2-.3.3s-.2.2-.2.4c0,.1,0,.3,0,.4h3.9v.5h-4.6c0-.3,0-.6.1-.9,0-.3.2-.5.4-.8.2-.3.5-.5.8-.7.3-.2.5-.4.8-.5.3-.2.5-.3.7-.4.2-.1.4-.3.6-.4.2-.2.3-.3.4-.5s.1-.4.1-.7,0-.4-.1-.6c0-.2-.2-.3-.3-.5-.1-.1-.3-.2-.5-.3-.2,0-.4-.1-.6-.1s-.4,0-.6.2c-.2,0-.4.2-.5.4-.1.2-.2.3-.3.6,0,.2-.1.4,0,.7h-.7ZM287.6,402.1v.6h-2.5v-.6h2.5ZM291.5,400.3c0-.3,0-.7.2-.9.1-.3.3-.5.5-.7.2-.2.4-.4.7-.5.3-.1.6-.2.9-.2s.7,0,.9.2c.3.1.5.2.7.4.2.2.3.4.4.6,0,.2.1.5.1.8s0,.6-.2.8c-.1.2-.2.5-.4.6-.2.2-.4.4-.6.5-.2.1-.4.3-.7.4-.2.1-.5.2-.7.4s-.4.2-.6.4c-.1,0-.2.2-.3.3-.1,0-.2.2-.3.3s-.2.2-.2.4c0,.1,0,.3,0,.4h3.9v.5h-4.6c0-.3,0-.6.1-.9,0-.3.2-.5.4-.8.2-.3.5-.5.8-.7.3-.2.5-.4.8-.5.3-.2.5-.3.7-.4.2-.1.4-.3.6-.4.2-.2.3-.3.4-.5s.1-.4.1-.7,0-.4-.1-.6c0-.2-.2-.3-.3-.5-.1-.1-.3-.2-.5-.3-.2,0-.4-.1-.6-.1s-.4,0-.6.2c-.2,0-.4.2-.5.4-.1.2-.2.3-.3.6,0,.2-.1.4,0,.7h-.7ZM300.9,401.5c0-.4,0-.8,0-1.1,0-.4-.1-.7-.2-1-.1-.3-.3-.5-.5-.7-.2-.2-.5-.3-.9-.3s-.6,0-.9.3c-.2.2-.4.4-.5.7-.1.3-.2.6-.3,1,0,.4,0,.8,0,1.1s0,.9,0,1.2c0,.4.2.7.3.9.1.3.3.5.5.6.2.1.5.2.8.2s.7,0,.9-.3c.2-.2.4-.4.5-.7s.2-.6.2-1c0-.4,0-.7,0-1.1ZM299.1,398c.3,0,.6,0,.9.2.3.1.5.2.6.4.2.2.3.4.4.6.1.2.2.5.3.8,0,.3.1.5.1.8,0,.3,0,.6,0,.8,0,.5,0,.9-.1,1.3,0,.4-.2.8-.4,1.1-.2.3-.4.6-.7.8-.3.2-.7.3-1.2.3s-.9,0-1.2-.3c-.3-.2-.6-.5-.7-.8-.2-.3-.3-.7-.4-1.1,0-.4-.1-.9-.1-1.4s0-.9,0-1.3.2-.8.3-1.1c.2-.3.4-.6.7-.8.3-.2.7-.3,1.2-.3ZM302.6,400.3c0-.3,0-.7.2-.9.1-.3.3-.5.5-.7.2-.2.4-.4.7-.5.3-.1.6-.2,1-.2s.7,0,.9.2c.3.1.5.2.7.4.2.2.3.4.4.6,0,.2.1.5.1.8s0,.6-.2.8c-.1.2-.2.5-.4.6-.2.2-.4.4-.6.5-.2.1-.4.3-.7.4-.2.1-.4.2-.7.4s-.4.2-.6.4c-.1,0-.2.2-.3.3-.1,0-.2.2-.3.3,0,.1-.2.2-.2.4,0,.1,0,.3,0,.4h3.9v.5h-4.6c0-.3,0-.6.1-.9,0-.3.2-.5.4-.8.2-.3.5-.5.8-.7.3-.2.5-.4.8-.5.3-.2.5-.3.7-.4.2-.1.4-.3.6-.4.2-.2.3-.3.4-.5,0-.2.1-.4.1-.7s0-.4-.1-.6c0-.2-.2-.3-.3-.5-.1-.1-.3-.2-.5-.3-.2,0-.4-.1-.6-.1s-.4,0-.6.2c-.2,0-.4.2-.5.4-.1.2-.2.3-.3.6,0,.2-.1.4,0,.7h-.7ZM309.7,401.1c.3,0,.6,0,.8,0,.2,0,.5-.1.6-.2.2-.1.3-.2.4-.4.1-.2.2-.4.2-.7s0-.4-.1-.6c0-.2-.2-.3-.3-.4-.1-.1-.3-.2-.5-.2-.2,0-.4,0-.6,0s-.4,0-.6.1c-.2,0-.3.2-.5.3-.1.1-.2.3-.3.5,0,.2-.1.4-.1.6h-.6c0-.3,0-.6.2-.9.1-.3.3-.5.5-.7.2-.2.5-.3.7-.4.3,0,.6,0,.9,0s.5,0,.8.1c.2,0,.5.2.6.3.2.1.3.3.4.5.1.2.2.5.2.8s0,.7-.2,1c-.2.3-.4.5-.8.6.3,0,.5.2.6.3.2.1.3.3.4.4,0,.2.2.3.2.5,0,.2,0,.3,0,.5,0,.3,0,.6-.1.8-.1.3-.2.5-.4.7-.2.2-.4.4-.7.5-.3.1-.6.2-1,.2-.4,0-.8,0-1.1-.1-.3,0-.6-.2-.8-.4-.2-.2-.4-.4-.5-.7-.1-.3-.2-.6-.2-1h.6c0,.5.2,1,.5,1.2.3.3.8.4,1.3.4s.5,0,.7-.1.4-.2.6-.4c.2-.1.3-.3.4-.5,0-.2.1-.4.1-.6,0-.3,0-.5-.2-.7-.1-.2-.3-.3-.5-.4-.2-.1-.4-.2-.7-.2-.3,0-.6,0-.9,0v-.5Z"/>
  <path class="st1" d="M22.8,319.4c-.1.9-.4,1.8-1,2.5-.6.7-1.3,1.3-2.2,1.7-.9.4-1.9.6-3.1.6s-2.5-.3-3.5-.8c-1-.5-1.8-1.2-2.3-2.2-.6-.9-.8-2-.8-3.2s.3-2.3.8-3.2c.6-.9,1.3-1.7,2.3-2.2,1-.5,2.2-.8,3.5-.8s2.2.2,3.1.6c.9.4,1.7,1,2.2,1.7.6.7.9,1.6,1,2.5h-1.5c-.1-.7-.4-1.3-.8-1.8-.4-.5-1-.9-1.7-1.2-.7-.3-1.5-.4-2.4-.4s-1.9.2-2.7.6c-.8.4-1.3,1-1.8,1.7-.4.7-.6,1.6-.6,2.6s.2,1.8.6,2.6c.4.7,1,1.3,1.8,1.7.8.4,1.7.6,2.7.6s1.7-.1,2.4-.4c.7-.3,1.2-.7,1.7-1.2.4-.5.7-1.1.8-1.9h1.5ZM29.4,324.2c-1.1,0-2-.2-2.8-.6-.8-.4-1.4-.9-1.9-1.7s-.7-1.5-.7-2.5.2-1.8.7-2.5c.4-.7,1.1-1.3,1.9-1.6.8-.4,1.7-.6,2.8-.6s2,.2,2.8.6c.8.4,1.4.9,1.9,1.6.5.7.7,1.5.7,2.5s-.2,1.7-.7,2.5c-.4.7-1.1,1.3-1.9,1.7s-1.7.6-2.8.6ZM29.4,323c.8,0,1.5-.1,2-.4.6-.3,1-.7,1.3-1.2.3-.5.5-1.1.5-1.9s-.2-1.3-.5-1.8c-.3-.5-.8-.9-1.3-1.2s-1.3-.4-2-.4-1.5.1-2,.4c-.6.3-1,.7-1.3,1.2-.3.5-.5,1.1-.5,1.8s.2,1.3.5,1.9c.3.5.8.9,1.3,1.2.6.3,1.3.4,2,.4ZM40.4,324.2c-.8,0-1.5-.2-2.1-.5-.6-.3-1-.8-1.3-1.5-.3-.6-.4-1.4-.4-2.3v-4.9h1.5v4.7c0,1.1.2,1.9.7,2.4.5.5,1.2.8,2.1.8s1.2-.1,1.7-.4c.5-.3.9-.7,1.1-1.2.3-.5.4-1.2.4-1.9l.6.3c0,.9-.3,1.7-.7,2.4-.4.7-.9,1.2-1.5,1.6-.6.4-1.3.5-2.1.5ZM44.5,324l-.5-3.1v-5.9h1.5v6.2l.5,2.8h-1.5ZM47.5,315h1.5l.5,3.1v5.9h-1.5v-6.2l-.5-2.8ZM54.3,315v1.3c-.2,0-.4-.1-.7-.1-.3,0-.5,0-.8,0-.6,0-1.2.1-1.7.4-.5.3-.9.7-1.2,1.3-.3.5-.4,1.2-.4,1.9l-.4-.6c0-.6.1-1.2.3-1.7.2-.5.4-1,.8-1.4.3-.4.7-.7,1.2-.9.5-.2,1-.3,1.6-.3s.5,0,.7,0c.2,0,.4,0,.6.1ZM64.2,321.4c0,.6-.2,1.1-.5,1.5-.3.4-.8.8-1.5,1-.7.2-1.5.4-2.4.4s-1.8-.1-2.6-.4c-.7-.3-1.3-.7-1.7-1.2s-.6-1.1-.7-1.7h1.5c0,.4.3.8.6,1.1.3.3.7.5,1.2.7.5.2,1.1.3,1.7.3.9,0,1.7-.1,2.2-.4.5-.3.8-.7.8-1.2s-.2-.7-.5-.8c-.3-.2-1-.3-1.9-.4l-1.7-.2c-.9,0-1.6-.2-2.1-.5-.5-.2-.9-.5-1.1-.9-.2-.4-.3-.7-.3-1.2s.2-1.1.5-1.5c.4-.4.9-.7,1.5-.9.6-.2,1.4-.3,2.2-.3s1.7.1,2.4.4c.7.3,1.3.6,1.7,1.1.4.5.6,1,.7,1.6h-1.5c0-.3-.2-.7-.5-.9-.3-.3-.6-.5-1.1-.7-.5-.2-1.1-.3-1.7-.3s-1.5.1-2,.4c-.5.2-.7.6-.7,1.1s.2.6.5.8c.3.2.9.3,1.6.4l2,.2c.9,0,1.6.2,2.1.4.5.2.9.5,1.1.8.2.3.3.8.3,1.2ZM74.6,324l-.3-3.4.4-1.1-.4-1.1.3-3.4h1.5l-.4,4.5.4,4.5h-1.5ZM75.2,319.5c-.2.9-.6,1.8-1.1,2.5-.5.7-1.1,1.3-1.8,1.6-.7.4-1.4.6-2.3.6s-1.7-.2-2.4-.6c-.7-.4-1.2-1-1.6-1.7-.4-.7-.6-1.5-.6-2.5s.2-1.8.6-2.5c.4-.7.9-1.3,1.6-1.6.7-.4,1.5-.6,2.4-.6s1.6.2,2.3.6c.7.4,1.3.9,1.8,1.6.5.7.8,1.5,1.1,2.5ZM67.1,319.5c0,.7.1,1.3.4,1.8.3.5.7.9,1.2,1.2.5.3,1.1.4,1.7.4s1.2-.1,1.8-.4c.5-.3,1-.7,1.4-1.2.4-.5.8-1.1,1-1.8-.3-.7-.6-1.3-1-1.8-.4-.5-.9-.9-1.4-1.2-.5-.3-1.1-.4-1.8-.4s-1.2.1-1.7.4c-.5.3-.9.7-1.2,1.2-.3.5-.4,1.1-.4,1.8Z"/>
  <path class="st1" d="M12.9,336.6c.7,0,1.3.1,1.7.4.7.4,1.1,1,1.3,2h-1c-.1-.5-.4-.9-.7-1.1-.4-.2-.8-.4-1.4-.4s-1.2.2-1.7.7c-.5.5-.7,1.2-.7,2.2s.2,1.5.6,2.1c.4.5,1,.8,1.8.8s1.2-.2,1.6-.6c.4-.4.6-1,.7-1.8h-2.2v-.8h3.1v3.8h-.6l-.2-.9c-.3.4-.6.6-.9.8-.4.2-1,.4-1.6.4s-1.6-.3-2.2-.8c-.7-.7-1-1.6-1-2.8s.3-2.2,1-2.9c.6-.7,1.4-1,2.4-1ZM19.5,343.4c.6,0,1-.2,1.2-.7.2-.4.3-.9.3-1.5s0-.9-.2-1.2c-.2-.5-.7-.7-1.3-.7s-.9.2-1.2.6c-.2.4-.4.9-.4,1.5s.1,1,.4,1.4c.2.4.6.6,1.2.6ZM19.5,338.6c.7,0,1.2.2,1.7.7s.7,1.1.7,2-.2,1.5-.6,2.1c-.4.6-1,.8-1.9.8s-1.3-.2-1.7-.7c-.4-.5-.6-1.1-.6-2s.2-1.6.7-2.1c.4-.5,1-.8,1.8-.8ZM25.1,343.4c.6,0,1-.2,1.2-.7.2-.4.3-.9.3-1.5s0-.9-.2-1.2c-.2-.5-.7-.7-1.3-.7s-.9.2-1.2.6c-.2.4-.4.9-.4,1.5s.1,1,.4,1.4c.2.4.6.6,1.2.6ZM25.1,338.6c.7,0,1.2.2,1.7.7s.7,1.1.7,2-.2,1.5-.6,2.1c-.4.6-1,.8-1.9.8s-1.3-.2-1.7-.7c-.4-.5-.6-1.1-.6-2s.2-1.6.7-2.1c.4-.5,1-.8,1.8-.8ZM30.4,338.7c.4,0,.8.1,1.1.3.2.1.3.3.5.5v-.7h.8v4.8c0,.7,0,1.2-.3,1.6-.4.7-1.1,1.1-2.1,1.1s-1-.1-1.4-.4c-.4-.3-.6-.6-.6-1.2h.9c0,.2.1.4.3.5.2.2.5.3.9.3.7,0,1.1-.2,1.3-.7.1-.3.2-.8.2-1.5-.2.3-.4.5-.6.6-.2.1-.6.2-1,.2s-1.1-.2-1.5-.6c-.4-.4-.6-1.1-.6-2s.2-1.6.6-2.1c.4-.5.9-.7,1.6-.7ZM32,341.4c0-.6-.1-1.1-.4-1.4-.3-.3-.6-.5-1-.5-.6,0-1,.3-1.3.9-.1.3-.2.7-.2,1.2s.1,1,.4,1.3c.2.3.6.5,1,.5.6,0,1.1-.3,1.3-.9.1-.3.2-.7.2-1.1ZM34.2,336.8h.9v7.2h-.9v-7.2ZM38.5,338.7c.4,0,.7,0,1.1.3.3.2.6.4.8.7.2.3.3.6.4.9,0,.2,0,.6,0,1.2h-3.8c0,.5.1,1,.4,1.3.2.3.6.5,1.1.5s.8-.2,1.1-.5c.2-.2.3-.4.3-.6h.9c0,.2,0,.4-.2.6-.1.2-.3.4-.4.6-.3.3-.6.4-1,.5-.2,0-.5,0-.7,0-.7,0-1.2-.2-1.7-.7-.5-.5-.7-1.1-.7-2s.2-1.5.7-2c.5-.5,1.1-.8,1.8-.8ZM39.9,341c0-.4-.1-.7-.2-.9-.2-.4-.6-.6-1.2-.6s-.7.1-1,.4c-.3.3-.4.7-.4,1.1h2.9Z"/>
  <path class="st1" d="M9.7,350.3c0-.3,0-.7.2-.9.1-.3.3-.5.5-.7.2-.2.4-.4.7-.5.3-.1.6-.2.9-.2s.7,0,.9.2c.3.1.5.2.7.4.2.2.3.4.4.6,0,.2.1.5.1.8s0,.6-.2.8c0,.2-.2.5-.4.6-.2.2-.4.4-.6.5-.2.1-.4.3-.7.4-.2.1-.4.2-.7.4s-.4.2-.6.4c-.1,0-.2.2-.3.3-.1,0-.2.2-.3.3,0,.1-.2.2-.2.4,0,.1,0,.3,0,.4h3.9v.5h-4.6c0-.3,0-.6.1-.9,0-.3.2-.5.4-.8.2-.3.5-.5.8-.7.3-.2.5-.4.8-.5.3-.2.5-.3.7-.4.2-.1.4-.3.6-.4.2-.2.3-.3.4-.5,0-.2.1-.4.1-.7s0-.4-.1-.6c0-.2-.2-.3-.3-.5-.1-.1-.3-.2-.5-.3-.2,0-.4-.1-.6-.1s-.4,0-.6.2c-.2,0-.4.2-.5.4-.1.2-.2.3-.3.6,0,.2-.1.4,0,.7h-.7ZM19.1,351.5c0-.4,0-.8,0-1.1,0-.4-.1-.7-.2-1-.1-.3-.3-.5-.5-.7-.2-.2-.5-.3-.9-.3s-.6,0-.9.3c-.2.2-.4.4-.5.7-.1.3-.2.6-.3,1,0,.4,0,.8,0,1.1s0,.9,0,1.2c0,.4.2.7.3.9.1.3.3.5.5.6.2.1.5.2.8.2s.7,0,.9-.3c.2-.2.4-.4.5-.7.1-.3.2-.6.2-1,0-.4,0-.7,0-1.1ZM17.3,348c.3,0,.6,0,.9.2.3.1.5.2.6.4.2.2.3.4.4.6.1.2.2.5.3.8,0,.3,0,.5.1.8,0,.3,0,.6,0,.8,0,.5,0,.9-.1,1.3,0,.4-.2.8-.4,1.1-.2.3-.4.6-.7.8-.3.2-.7.3-1.2.3s-.9,0-1.2-.3c-.3-.2-.6-.5-.7-.8-.2-.3-.3-.7-.4-1.1,0-.4-.1-.9-.1-1.4s0-.9,0-1.3c0-.4.2-.8.3-1.1.2-.3.4-.6.7-.8.3-.2.7-.3,1.2-.3ZM20.8,350.3c0-.3,0-.7.2-.9.1-.3.3-.5.5-.7.2-.2.4-.4.7-.5.3-.1.6-.2,1-.2s.7,0,.9.2c.3.1.5.2.7.4.2.2.3.4.4.6,0,.2.1.5.1.8s0,.6-.2.8c-.1.2-.2.5-.4.6-.2.2-.4.4-.6.5-.2.1-.4.3-.7.4-.2.1-.5.2-.7.4-.2.1-.4.2-.6.4-.1,0-.2.2-.3.3-.1,0-.2.2-.3.3,0,.1-.2.2-.2.4,0,.1,0,.3,0,.4h3.9v.5h-4.6c0-.3,0-.6.1-.9,0-.3.2-.5.4-.8.2-.3.5-.5.8-.7.3-.2.5-.4.8-.5.3-.2.5-.3.7-.4.2-.1.4-.3.6-.4.2-.2.3-.3.4-.5s.1-.4.1-.7,0-.4-.1-.6c0-.2-.2-.3-.3-.5-.1-.1-.3-.2-.5-.3-.2,0-.4-.1-.6-.1s-.4,0-.6.2c-.2,0-.4.2-.5.4-.1.2-.2.3-.3.6,0,.2-.1.4,0,.7h-.7ZM27.9,351.1c.3,0,.6,0,.8,0,.2,0,.5-.1.6-.2.2-.1.3-.2.4-.4,0-.2.1-.4.1-.7s0-.4-.1-.6c0-.2-.2-.3-.3-.4-.1-.1-.3-.2-.5-.2-.2,0-.4,0-.6,0s-.4,0-.6.1c-.2,0-.3.2-.5.3-.1.1-.2.3-.3.5,0,.2-.1.4-.1.6h-.6c0-.3,0-.6.2-.9.1-.3.3-.5.5-.7.2-.2.5-.3.7-.4.3,0,.6,0,.9,0s.5,0,.8.1c.2,0,.5.2.6.3.2.1.3.3.4.5.1.2.2.5.2.8s0,.7-.2,1c-.2.3-.4.5-.8.6.3,0,.5.2.6.3.2.1.3.3.4.4,0,.2.2.3.2.5,0,.2,0,.3,0,.5,0,.3,0,.6-.1.8-.1.3-.2.5-.4.7-.2.2-.4.4-.7.5-.3.1-.6.2-1,.2-.4,0-.8,0-1.1-.1s-.5-.2-.8-.4c-.2-.2-.4-.4-.5-.7-.1-.3-.2-.6-.2-1h.6c0,.5.2,1,.5,1.2.3.3.8.4,1.3.4s.5,0,.7-.1c.2,0,.4-.2.6-.4.2-.1.3-.3.4-.5,0-.2.1-.4.1-.6,0-.3,0-.5-.2-.7-.1-.2-.3-.3-.5-.4-.2-.1-.4-.2-.7-.2-.3,0-.6,0-.9,0v-.5Z"/>
  <path class="st1" d="M263.7,159.1h1.5c0,.6.3,1.1.7,1.5.4.4.9.8,1.5,1,.6.2,1.3.3,2.1.3,1.2,0,2.2-.2,2.9-.6.7-.4,1.1-1,1.1-1.7s-.2-1-.7-1.2c-.4-.3-1.2-.5-2.3-.6l-2.3-.3c-1.5-.2-2.5-.5-3.2-1-.6-.5-1-1.2-1-2.1s.2-1.3.6-1.9c.4-.5,1-.9,1.8-1.2.8-.3,1.7-.4,2.7-.4s2,.2,2.8.5c.8.3,1.5.7,1.9,1.3.5.6.7,1.2.8,2h-1.5c0-.5-.3-.9-.6-1.3-.3-.4-.8-.7-1.4-.9-.6-.2-1.2-.3-2-.3-1.1,0-2,.2-2.6.6-.7.4-1,.9-1,1.6s.2.9.6,1.2c.4.3,1.2.5,2.2.6l2.3.3c1.1.1,1.9.3,2.5.6.6.2,1.1.6,1.4,1,.3.4.4.9.4,1.6s-.2,1.4-.7,2c-.4.6-1.1,1-1.9,1.3-.8.3-1.8.4-2.9.4s-2.1-.2-2.9-.5c-.9-.4-1.5-.8-2-1.4-.5-.6-.8-1.3-.8-2.1ZM275.6,155.2v-.7l2-.4.6-2.4h.9v2.3h4.4v1.2h-4.4v4.6c0,.8.2,1.4.5,1.7.4.3.9.5,1.7.5s.9,0,1.3-.2c.4-.1.7-.3,1.1-.5v1.3c-.3.2-.6.3-1.1.4-.5.1-1,.2-1.5.2-.8,0-1.5-.1-2-.4-.5-.3-.8-.7-1.1-1.2-.2-.5-.3-1-.3-1.7v-4.8h-2ZM289,163.2c-.8,0-1.5-.2-2.1-.5-.6-.3-1-.8-1.3-1.5-.3-.6-.4-1.4-.4-2.3v-4.9h1.5v4.7c0,1.1.2,1.9.7,2.4.5.5,1.2.8,2.1.8s1.2-.1,1.7-.4c.5-.3.9-.7,1.1-1.2.3-.5.4-1.2.4-1.9l.6.3c0,.9-.3,1.7-.7,2.4-.4.7-.9,1.2-1.5,1.6-.6.4-1.3.5-2.1.5ZM293.1,163l-.5-3.1v-5.9h1.5v6.2l.5,2.8h-1.5ZM305.2,163l-.3-3.4.4-1.1-.4-1.1.6-6.7h1.5l-.8,7.7.4,4.6h-1.5ZM305.7,158.5c-.2.9-.6,1.8-1.1,2.5-.5.7-1.1,1.3-1.8,1.6-.7.4-1.4.6-2.3.6s-1.7-.2-2.4-.6c-.7-.4-1.2-1-1.6-1.7-.4-.7-.6-1.5-.6-2.5s.2-1.8.6-2.5c.4-.7.9-1.3,1.6-1.6.7-.4,1.5-.6,2.4-.6s1.6.2,2.3.6c.7.4,1.3.9,1.8,1.6s.8,1.5,1.1,2.5ZM297.6,158.5c0,.7.1,1.3.4,1.8.3.5.7.9,1.2,1.2.5.3,1.1.4,1.7.4s1.2-.1,1.8-.4c.5-.3,1-.7,1.4-1.2.4-.5.8-1.1,1-1.8-.3-.7-.6-1.3-1-1.8-.4-.5-.9-.9-1.4-1.2-.5-.3-1.1-.4-1.8-.4s-1.2.1-1.7.4c-.5.3-.9.7-1.2,1.2-.3.5-.4,1.1-.4,1.8ZM313.6,163.2c-1,0-2-.2-2.8-.6-.8-.4-1.4-1-1.9-1.7-.4-.7-.7-1.5-.7-2.5s.2-1.8.6-2.5c.4-.7,1-1.3,1.8-1.6.8-.4,1.6-.6,2.6-.6s1.8.2,2.5.6c.7.4,1.3,1,1.7,1.8.4.8.6,1.7.6,2.7h-8.7v-1.2h8.1l-.9.5c0-.7-.2-1.3-.5-1.7s-.7-.9-1.2-1.1c-.5-.3-1.1-.4-1.7-.4s-1.3.1-1.8.4c-.5.3-.9.7-1.2,1.2-.3.5-.4,1.1-.4,1.8s.2,1.4.5,1.9c.3.5.8.9,1.4,1.2.6.3,1.3.4,2.1.4s1.5-.1,2.2-.4c.7-.2,1.4-.6,1.9-1v1.2c-.6.4-1.2.8-2,1.1-.8.3-1.5.4-2.3.4ZM319.6,154h1.5l.5,3.1v6h-1.5v-6.2l-.5-2.8ZM325.3,153.8c.8,0,1.6.2,2.1.5.6.3,1,.8,1.3,1.5.3.6.5,1.4.5,2.3v5h-1.5v-4.7c0-1.1-.2-1.9-.8-2.4-.5-.6-1.2-.8-2.2-.8s-1.2.1-1.7.4c-.5.3-.9.7-1.2,1.2-.3.5-.4,1.1-.4,1.8l-.6-.4c0-.9.3-1.7.7-2.3s.9-1.2,1.5-1.5c.6-.4,1.3-.5,2.1-.5ZM330.2,155.2v-.7l2-.4.6-2.4h.9v2.3h4.4v1.2h-4.4v4.6c0,.8.2,1.4.5,1.7.4.3.9.5,1.7.5s.9,0,1.3-.2c.4-.1.7-.3,1.1-.5v1.3c-.3.2-.6.3-1.1.4-.5.1-1,.2-1.5.2-.8,0-1.5-.1-2-.4-.5-.3-.8-.7-1.1-1.2-.2-.5-.3-1-.3-1.7v-4.8h-2ZM265.7,180v-1.3h8.4v1.3h-8.4ZM270.9,171l5.9,12h-1.6l-5.6-11.5h.8l-5.6,11.5h-1.6l5.9-12h1.8ZM286.5,180.4c0,.6-.2,1.1-.5,1.5-.3.4-.8.8-1.5,1-.7.2-1.5.4-2.4.4s-1.8-.1-2.6-.4c-.7-.3-1.3-.7-1.7-1.2-.4-.5-.6-1.1-.7-1.7h1.5c0,.4.3.8.6,1.1.3.3.7.5,1.2.7.5.2,1.1.3,1.7.3.9,0,1.7-.1,2.2-.4.5-.3.8-.7.8-1.2s-.2-.7-.5-.8c-.3-.2-1-.3-1.9-.4l-1.7-.2c-.9,0-1.6-.2-2.1-.5-.5-.2-.9-.5-1.1-.9-.2-.4-.3-.7-.3-1.2s.2-1.1.5-1.5c.4-.4.9-.7,1.5-.9.6-.2,1.4-.3,2.2-.3s1.7.1,2.4.4c.7.3,1.3.6,1.7,1.1.4.5.6,1,.7,1.6h-1.5c0-.3-.2-.7-.5-.9-.3-.3-.6-.5-1.1-.7-.5-.2-1-.3-1.7-.3s-1.5.1-2,.4c-.5.2-.7.6-.7,1.1s.2.6.5.8c.3.2.9.3,1.6.4l2,.2c.9,0,1.6.2,2.1.4.5.2.9.5,1.1.8.2.3.3.8.3,1.2ZM297.1,180.4c0,.6-.2,1.1-.5,1.5-.3.4-.8.8-1.5,1-.7.2-1.5.4-2.4.4s-1.8-.1-2.6-.4c-.7-.3-1.3-.7-1.7-1.2-.4-.5-.6-1.1-.7-1.7h1.5c0,.4.3.8.6,1.1.3.3.7.5,1.2.7.5.2,1.1.3,1.7.3.9,0,1.7-.1,2.2-.4.5-.3.8-.7.8-1.2s-.2-.7-.5-.8c-.3-.2-1-.3-1.9-.4l-1.7-.2c-.9,0-1.6-.2-2.1-.5-.5-.2-.9-.5-1.1-.9-.2-.4-.3-.7-.3-1.2s.2-1.1.5-1.5c.4-.4.9-.7,1.5-.9.6-.2,1.4-.3,2.2-.3s1.7.1,2.4.4c.7.3,1.3.6,1.7,1.1.4.5.6,1,.7,1.6h-1.5c0-.3-.2-.7-.5-.9-.3-.3-.6-.5-1.1-.7-.5-.2-1-.3-1.7-.3s-1.5.1-2,.4c-.5.2-.7.6-.7,1.1s.2.6.5.8c.3.2.9.3,1.6.4l2,.2c.9,0,1.6.2,2.1.4.5.2.9.5,1.1.8.2.3.3.8.3,1.2ZM299,174h.7c0,.1.7,0,.7,0v9h-1.5v-9ZM299.7,172.6c-.3,0-.6,0-.8-.3-.2-.2-.3-.4-.3-.7s.1-.5.3-.7c.2-.2.5-.3.8-.3s.6,0,.8.3c.2.2.3.4.3.7s-.1.5-.3.7c-.2.2-.5.3-.8.3ZM311.6,180.4c0,.6-.2,1.1-.5,1.5-.3.4-.8.8-1.5,1-.7.2-1.5.4-2.4.4s-1.8-.1-2.6-.4c-.7-.3-1.3-.7-1.7-1.2-.4-.5-.6-1.1-.7-1.7h1.5c0,.4.2.8.6,1.1.3.3.7.5,1.2.7.5.2,1.1.3,1.7.3.9,0,1.7-.1,2.2-.4.5-.3.8-.7.8-1.2s-.2-.7-.5-.8c-.3-.2-1-.3-1.9-.4l-1.7-.2c-.9,0-1.6-.2-2.1-.5-.5-.2-.9-.5-1.1-.9-.2-.4-.3-.7-.3-1.2s.2-1.1.5-1.5c.4-.4.9-.7,1.5-.9.6-.2,1.4-.3,2.2-.3s1.7.1,2.4.4c.7.3,1.3.6,1.7,1.1.4.5.6,1,.7,1.6h-1.5c0-.3-.2-.7-.5-.9-.3-.3-.6-.5-1.1-.7-.5-.2-1.1-.3-1.7-.3s-1.5.1-2,.4c-.5.2-.7.6-.7,1.1s.2.6.5.8c.3.2.9.3,1.6.4l2,.2c.9,0,1.6.2,2.1.4.5.2.9.5,1.1.8.2.3.3.8.3,1.2ZM312.2,175.2v-.7l2-.4.6-2.4h.9v2.3h4.4v1.2h-4.4v4.6c0,.8.2,1.4.5,1.7.4.3.9.5,1.7.5s.9,0,1.3-.2c.4-.1.7-.3,1.1-.5v1.3c-.3.2-.6.3-1.1.4-.5.1-1,.2-1.5.2-.8,0-1.5-.1-2-.4-.5-.3-.8-.7-1.1-1.2-.2-.5-.3-1-.3-1.7v-4.8h-2ZM330.1,183l-.3-3.4.4-1.1-.4-1.1.3-3.4h1.5l-.4,4.5.4,4.5h-1.5ZM330.7,178.5c-.2.9-.6,1.8-1.1,2.5-.5.7-1.1,1.3-1.8,1.6-.7.4-1.4.6-2.3.6s-1.7-.2-2.4-.6c-.7-.4-1.2-1-1.6-1.7-.4-.7-.6-1.5-.6-2.5s.2-1.8.6-2.5c.4-.7.9-1.3,1.6-1.6.7-.4,1.5-.6,2.4-.6s1.6.2,2.3.6c.7.4,1.3.9,1.8,1.6s.8,1.5,1.1,2.5ZM322.5,178.5c0,.7.1,1.3.4,1.8.3.5.7.9,1.2,1.2.5.3,1.1.4,1.7.4s1.2-.1,1.8-.4c.5-.3,1-.7,1.4-1.2.4-.5.8-1.1,1-1.8-.3-.7-.6-1.3-1-1.8-.4-.5-.9-.9-1.4-1.2-.5-.3-1.1-.4-1.8-.4s-1.2.1-1.7.4c-.5.3-.9.7-1.2,1.2-.3.5-.4,1.1-.4,1.8ZM333.4,174h1.5l.5,3.1v6h-1.5v-6.2l-.5-2.8ZM339.1,173.8c.8,0,1.6.2,2.1.5.6.3,1,.8,1.3,1.5.3.6.5,1.4.5,2.3v5h-1.5v-4.7c0-1.1-.3-1.9-.8-2.4-.5-.6-1.2-.8-2.2-.8s-1.2.1-1.7.4c-.5.3-.9.7-1.2,1.2-.3.5-.4,1.1-.4,1.8l-.6-.4c0-.9.3-1.7.7-2.3s.9-1.2,1.5-1.5c.6-.4,1.3-.5,2.1-.5ZM344,175.2v-.7l2-.4.6-2.4h.9v2.3h4.4v1.2h-4.4v4.6c0,.8.2,1.4.5,1.7.4.3.9.5,1.7.5s.9,0,1.3-.2c.4-.1.7-.3,1.1-.5v1.3c-.3.2-.6.3-1.1.4-.5.1-1,.2-1.5.2-.8,0-1.5-.1-2-.4-.5-.3-.8-.7-1.1-1.2-.2-.5-.3-1-.3-1.7v-4.8h-2Z"/>
  <path class="st1" d="M269,195.8v.9h-2.4v6.3h-1v-6.3h-2.4v-.9h5.8ZM270.8,197.7c.4,0,.7,0,1.1.3.3.2.6.4.8.7.2.3.3.6.4.9,0,.2,0,.6,0,1.2h-3.8c0,.5.1,1,.4,1.3.2.3.6.5,1.1.5s.8-.2,1.1-.5c.2-.2.3-.4.3-.6h.9c0,.2,0,.4-.2.6-.1.2-.3.4-.4.6-.3.3-.6.4-1,.5-.2,0-.5,0-.7,0-.7,0-1.2-.2-1.7-.7-.5-.5-.7-1.1-.7-2s.2-1.5.7-2c.5-.5,1.1-.8,1.8-.8ZM272.2,200c0-.4-.1-.7-.2-.9-.2-.4-.6-.6-1.2-.6s-.7.1-1,.4c-.3.3-.4.7-.4,1.1h2.9ZM276.2,197.6c.6,0,1.1.1,1.4.4.4.3.6.8.7,1.5h-.9c0-.3-.2-.6-.4-.8-.2-.2-.5-.3-.9-.3s-1,.3-1.2.8c-.2.4-.2.8-.2,1.3s.1,1,.3,1.3c.2.4.6.5,1,.5s.7-.1.9-.3c.2-.2.4-.5.4-.9h.9c0,.7-.3,1.2-.7,1.5-.4.3-.9.5-1.5.5s-1.2-.2-1.6-.7c-.4-.5-.6-1.1-.6-1.9s.2-1.6.7-2.1c.4-.5,1-.8,1.7-.8ZM279.2,195.8h.9v2.7c.2-.3.4-.4.6-.6.3-.2.6-.3,1.1-.3.8,0,1.3.3,1.5.8.1.3.2.7.2,1.2v3.4h-.9v-3.3c0-.4,0-.7-.1-.8-.2-.3-.5-.4-.9-.4s-.7.1-1,.4c-.3.2-.4.7-.4,1.4v2.8h-.9v-7.2ZM289.8,198.6c.3-.2.5-.4.6-.5.2-.2.3-.5.3-.7s0-.4-.2-.5c-.1-.2-.3-.2-.6-.2-.4,0-.6.1-.8.4,0,.1-.1.3-.1.4s0,.4.2.6c.1.2.3.4.5.7ZM289.5,202.4c.4,0,.7,0,.9-.2.3-.2.5-.4.6-.6l-1.6-2c-.5.3-.8.5-.9.7-.2.2-.3.5-.3.9s.1.7.4.9c.3.2.6.3.9.3ZM289,199c-.3-.3-.5-.6-.6-.9-.1-.2-.2-.5-.2-.7,0-.5.2-.8.5-1.1.3-.3.7-.5,1.3-.5s.9.1,1.2.4c.3.3.4.6.4,1s-.1.9-.4,1.2c-.2.2-.5.4-.9.7l1.3,1.6c0-.3.1-.5.2-.6,0-.1,0-.3.1-.5h.8c0,.5-.2.9-.3,1.3-.2.4-.2.6-.2.5l1.3,1.5h-1.1l-.7-.8c-.3.3-.5.5-.7.6-.4.2-.8.4-1.3.4-.7,0-1.3-.2-1.6-.6-.3-.4-.5-.9-.5-1.4s.2-1,.5-1.4c.2-.2.6-.5,1.1-.8ZM297.8,200.7c0,.4.1.7.3,1,.3.5.9.7,1.7.7s.7,0,1-.2c.6-.2.9-.6.9-1.1s-.1-.7-.4-.8c-.2-.2-.6-.3-1.2-.4l-1-.2c-.6-.1-1.1-.3-1.3-.5-.5-.3-.7-.7-.7-1.3s.2-1.2.7-1.6c.4-.4,1.1-.6,1.9-.6s1.4.2,1.9.5c.5.4.8.9.8,1.7h-.9c0-.4-.2-.7-.3-.9-.3-.4-.8-.6-1.5-.6s-1,.1-1.2.4c-.3.2-.4.5-.4.8s.1.6.4.8c.2.1.6.2,1.3.4l1,.2c.5.1.9.3,1.1.5.5.3.7.8.7,1.5s-.3,1.4-.9,1.7c-.6.3-1.2.5-2,.5s-1.6-.2-2.1-.7c-.5-.5-.8-1.1-.7-1.8h.9ZM303.9,196.3h.9v1.5h.8v.7h-.8v3.4c0,.2,0,.3.2.4,0,0,.2,0,.3,0h.1s.1,0,.2,0v.7c-.1,0-.2,0-.3,0-.1,0-.2,0-.4,0-.4,0-.7-.1-.8-.3-.1-.2-.2-.5-.2-.8v-3.5h-.7v-.7h.7v-1.5ZM308.5,202.4c.6,0,1-.2,1.2-.7.2-.4.3-.9.3-1.5s0-.9-.2-1.2c-.2-.5-.7-.7-1.3-.7s-.9.2-1.2.6c-.2.4-.4.9-.4,1.5s.1,1,.4,1.4c.2.4.6.6,1.2.6ZM308.6,197.6c.7,0,1.2.2,1.7.7.5.4.7,1.1.7,2s-.2,1.5-.6,2.1c-.4.5-1,.8-1.9.8s-1.3-.2-1.7-.7c-.4-.5-.6-1.1-.6-2s.2-1.6.7-2.1c.4-.5,1-.8,1.8-.8ZM312.1,197.8h.8v.9c0-.2.2-.4.5-.6.3-.3.6-.4.9-.4s0,0,0,0c0,0,.1,0,.2,0v.9c0,0-.1,0-.1,0,0,0,0,0-.1,0-.4,0-.8.1-1,.4-.2.3-.4.6-.4,1v3h-.9v-5.2ZM318.6,197.8h1c-.1.3-.4,1.1-.8,2.3-.3.9-.6,1.6-.8,2.2-.5,1.3-.9,2.1-1.1,2.4-.2.3-.6.4-1.1.4s-.2,0-.3,0c0,0-.1,0-.2,0v-.8c.2,0,.3,0,.3,0,0,0,.1,0,.2,0,.2,0,.3,0,.4,0,0,0,.1-.1.2-.2,0,0,0-.2.2-.4.1-.2.2-.4.2-.5l-1.9-5.4h1l1.4,4.3,1.4-4.3ZM323.3,195.8h1v6.3h3.6v.9h-4.6v-7.2ZM329.4,201.6c0,.3,0,.5.3.6.2.1.4.2.7.2s.6,0,.9-.2c.5-.2.7-.6.7-1.2v-.7c-.1,0-.2.1-.4.2-.2,0-.3,0-.5,0h-.5c-.3.1-.6.2-.7.3-.3.2-.4.4-.4.7ZM331.5,199.8c.2,0,.3-.1.4-.3,0,0,0-.2,0-.3,0-.3-.1-.5-.3-.6-.2-.1-.5-.2-.9-.2s-.8.1-1,.4c-.1.1-.2.3-.2.6h-.8c0-.6.2-1.1.6-1.3.4-.3.9-.4,1.4-.4s1.1.1,1.5.4c.4.2.6.6.6,1.1v3c0,0,0,.2,0,.2,0,0,.1,0,.2,0s0,0,.1,0c0,0,.1,0,.2,0v.6c-.1,0-.2,0-.3,0,0,0-.2,0-.3,0-.3,0-.5-.1-.7-.3,0-.1-.1-.3-.2-.5-.2.2-.4.4-.8.6-.3.2-.7.3-1.1.3s-.9-.1-1.2-.4c-.3-.3-.5-.7-.5-1.1s.2-.9.5-1.1.7-.4,1.2-.5l1.4-.2ZM334.2,195.8h.9v2.6c.2-.2.4-.4.7-.6.3-.1.6-.2.9-.2.7,0,1.2.2,1.6.7.4.4.6,1.1.6,2s-.2,1.5-.6,2.1c-.4.5-1,.8-1.7.8s-.7,0-1-.3c-.2-.1-.3-.3-.5-.5v.7h-.8v-7.2ZM336.5,202.4c.5,0,.8-.2,1.1-.6.2-.4.4-.9.4-1.5s-.1-1-.4-1.4c-.2-.4-.6-.5-1-.5s-.8.1-1.1.4c-.3.3-.4.8-.4,1.5s0,.9.2,1.2c.2.6.7.9,1.3.9Z"/>
  <path class="st1" d="M263.7,210.3c0-.3,0-.7.2-.9.1-.3.3-.5.5-.7.2-.2.4-.4.7-.5.3-.1.6-.2,1-.2s.7,0,.9.2c.3.1.5.2.7.4.2.2.3.4.4.6,0,.2.1.5.1.8s0,.6-.2.8c0,.2-.2.5-.4.6-.2.2-.4.4-.6.5-.2.1-.4.3-.7.4-.2.1-.4.2-.7.4-.2.1-.4.2-.6.4-.1,0-.2.2-.3.3-.1,0-.2.2-.3.3,0,.1-.2.2-.2.4,0,.1,0,.3,0,.5h3.9v.5h-4.6c0-.3,0-.6.1-.9,0-.3.2-.5.4-.8.2-.3.5-.5.8-.7.3-.2.5-.4.8-.5.3-.2.5-.3.7-.4.2-.1.4-.3.6-.4.2-.2.3-.3.4-.5.1-.2.2-.4.2-.7s0-.4-.1-.6c0-.2-.2-.3-.3-.5s-.3-.2-.5-.3c-.2,0-.4,0-.6,0s-.4,0-.6.1c-.2,0-.4.2-.5.4-.1.2-.2.3-.3.6s-.1.4,0,.7h-.7ZM273.1,211.5c0-.4,0-.8,0-1.1,0-.4-.1-.7-.2-1-.1-.3-.3-.5-.5-.7-.2-.2-.5-.3-.9-.3s-.6,0-.9.3c-.2.2-.4.4-.5.7-.1.3-.2.6-.3,1,0,.4,0,.8,0,1.1s0,.9,0,1.2c0,.4.2.7.3.9.1.3.3.5.5.6.2.1.5.2.9.2s.7,0,.9-.3c.2-.2.4-.4.5-.7s.2-.6.2-1,0-.7,0-1.1ZM271.3,207.9c.3,0,.6,0,.9.2.3.1.5.2.6.4.2.2.3.4.4.6.1.2.2.5.3.8,0,.3.1.5.1.8,0,.3,0,.6,0,.8,0,.5,0,.9-.1,1.3,0,.4-.2.8-.4,1.1-.2.3-.4.6-.7.8-.3.2-.7.3-1.2.3s-.9,0-1.2-.3c-.3-.2-.5-.5-.7-.8-.2-.3-.3-.7-.4-1.2,0-.4-.1-.9-.1-1.4s0-.9,0-1.3.2-.8.3-1.1c.2-.3.4-.6.7-.8.3-.2.7-.3,1.2-.3ZM274.8,210.3c0-.3,0-.7.2-.9.1-.3.3-.5.5-.7.2-.2.4-.4.7-.5.3-.1.6-.2.9-.2s.7,0,.9.2c.3.1.5.2.7.4.2.2.3.4.4.6,0,.2.1.5.1.8s0,.6-.2.8c-.1.2-.2.5-.4.6-.2.2-.4.4-.6.5-.2.1-.4.3-.7.4-.2.1-.5.2-.7.4-.2.1-.4.2-.6.4-.1,0-.2.2-.3.3-.1,0-.2.2-.3.3,0,.1-.2.2-.2.4,0,.1,0,.3,0,.5h3.9v.5h-4.6c0-.3,0-.6.1-.9,0-.3.2-.5.4-.8.2-.3.5-.5.8-.7.3-.2.5-.4.8-.5.3-.2.5-.3.7-.4.2-.1.4-.3.6-.4.2-.2.3-.3.4-.5.1-.2.1-.4.1-.7s0-.4-.1-.6c0-.2-.2-.3-.3-.5-.1-.1-.3-.2-.5-.3-.2,0-.4,0-.6,0s-.4,0-.6.1c-.2,0-.3.2-.5.4-.1.2-.2.3-.3.6,0,.2-.1.4,0,.7h-.7ZM283.2,213.3h-3.2v-.5l3.3-4.7h.6v4.7h1v.5h-1v1.7h-.6v-1.7ZM280.7,212.7h2.6v-3.7l-2.6,3.7Z"/>
  <path class="st1" d="M222.7,53.1h1.5c0,.6.3,1.1.7,1.5.4.4.9.8,1.5,1,.6.2,1.3.3,2.1.3,1.2,0,2.2-.2,2.9-.6.7-.4,1.1-1,1.1-1.7s-.2-1-.7-1.2c-.4-.3-1.2-.5-2.3-.6l-2.3-.3c-1.5-.2-2.5-.5-3.2-1-.6-.5-1-1.2-1-2.1s.2-1.3.6-1.9c.4-.5,1-.9,1.8-1.2.8-.3,1.7-.4,2.7-.4s2,.2,2.8.5c.8.3,1.5.7,1.9,1.3.5.6.7,1.2.8,2h-1.5c0-.5-.3-.9-.6-1.3-.3-.4-.8-.7-1.4-.9-.6-.2-1.2-.3-2-.3-1.1,0-2,.2-2.6.6-.7.4-1,.9-1,1.6s.2.9.6,1.2c.4.3,1.2.5,2.2.6l2.3.3c1.1.1,1.9.3,2.5.6.6.2,1.1.6,1.4,1,.3.4.4.9.4,1.6s-.2,1.4-.7,2c-.4.6-1.1,1-1.9,1.3-.8.3-1.8.4-2.9.4s-2.1-.2-2.9-.5c-.9-.4-1.5-.8-2-1.4-.5-.6-.8-1.3-.8-2.1ZM234.6,49.2v-.7l2-.4.6-2.4h.9v2.3h4.4v1.2h-4.4v4.6c0,.8.2,1.4.5,1.7.4.3.9.5,1.7.5s.9,0,1.3-.2c.4-.1.7-.3,1.1-.5v1.3c-.3.2-.6.3-1.1.4-.5.1-1,.2-1.5.2-.8,0-1.5-.1-2-.4-.5-.3-.8-.7-1.1-1.2-.2-.5-.3-1-.3-1.7v-4.8h-2ZM248,57.2c-.8,0-1.5-.2-2.1-.5-.6-.3-1-.8-1.3-1.5-.3-.6-.4-1.4-.4-2.3v-4.9h1.5v4.7c0,1.1.2,1.9.7,2.4.5.5,1.2.8,2.1.8s1.2-.1,1.7-.4c.5-.3.9-.7,1.1-1.2.3-.5.4-1.2.4-1.9l.6.3c0,.9-.3,1.7-.7,2.4-.4.7-.9,1.2-1.5,1.6-.6.4-1.3.5-2.1.5ZM252.1,57l-.5-3.1v-5.9h1.5v6.2l.5,2.8h-1.5ZM264.2,57l-.3-3.4.4-1.1-.4-1.1.6-6.7h1.5l-.8,7.7.4,4.6h-1.5ZM264.7,52.5c-.2.9-.6,1.8-1.1,2.5-.5.7-1.1,1.3-1.8,1.6-.7.4-1.4.6-2.3.6s-1.7-.2-2.4-.6c-.7-.4-1.2-1-1.6-1.7-.4-.7-.6-1.5-.6-2.5s.2-1.8.6-2.5c.4-.7.9-1.3,1.6-1.6.7-.4,1.5-.6,2.4-.6s1.6.2,2.3.6c.7.4,1.3.9,1.8,1.6.5.7.8,1.5,1.1,2.5ZM256.6,52.5c0,.7.1,1.3.4,1.8.3.5.7.9,1.2,1.2.5.3,1.1.4,1.7.4s1.2-.1,1.8-.4c.5-.3,1-.7,1.4-1.2.4-.5.8-1.1,1-1.8-.3-.7-.6-1.3-1-1.8-.4-.5-.9-.9-1.4-1.2-.5-.3-1.1-.4-1.8-.4s-1.2.1-1.7.4c-.5.3-.9.7-1.2,1.2-.3.5-.4,1.1-.4,1.8ZM272.6,57.2c-1,0-2-.2-2.8-.6-.8-.4-1.4-1-1.9-1.7-.4-.7-.7-1.5-.7-2.5s.2-1.8.6-2.5c.4-.7,1-1.3,1.8-1.6.8-.4,1.6-.6,2.6-.6s1.8.2,2.5.6c.7.4,1.3,1,1.7,1.8.4.8.6,1.7.6,2.7h-8.7v-1.2h8.1l-.9.5c0-.7-.2-1.3-.5-1.7s-.7-.9-1.2-1.1c-.5-.3-1.1-.4-1.7-.4s-1.3.1-1.8.4c-.5.3-.9.7-1.2,1.2-.3.5-.4,1.1-.4,1.8s.2,1.4.5,1.9c.3.5.8.9,1.4,1.2.6.3,1.3.4,2.1.4s1.5-.1,2.2-.4c.7-.2,1.4-.6,1.9-1v1.2c-.6.4-1.2.8-2,1.1-.8.3-1.5.4-2.3.4ZM278.6,48h1.5l.5,3.1v6h-1.5v-6.2l-.5-2.8ZM284.3,47.8c.8,0,1.6.2,2.1.5.6.3,1,.8,1.3,1.5.3.6.5,1.4.5,2.3v5h-1.5v-4.7c0-1.1-.2-1.9-.8-2.4-.5-.6-1.2-.8-2.2-.8s-1.2.1-1.7.4c-.5.3-.9.7-1.2,1.2-.3.5-.4,1.1-.4,1.8l-.6-.4c0-.9.3-1.7.7-2.3s.9-1.2,1.5-1.5c.6-.4,1.3-.5,2.1-.5ZM289.2,49.2v-.7l2-.4.6-2.4h.9v2.3h4.4v1.2h-4.4v4.6c0,.8.2,1.4.5,1.7.4.3.9.5,1.7.5s.9,0,1.3-.2c.4-.1.7-.3,1.1-.5v1.3c-.3.2-.6.3-1.1.4-.5.1-1,.2-1.5.2-.8,0-1.5-.1-2-.4-.5-.3-.8-.7-1.1-1.2-.2-.5-.3-1-.3-1.7v-4.8h-2ZM224.7,74v-1.3h8.4v1.3h-8.4ZM229.9,65l5.9,12h-1.6l-5.6-11.5h.8l-5.6,11.5h-1.6l5.9-12h1.8ZM245.5,74.4c0,.6-.2,1.1-.5,1.5-.3.4-.8.8-1.5,1-.7.2-1.5.4-2.4.4s-1.8-.1-2.6-.4c-.7-.3-1.3-.7-1.7-1.2s-.6-1.1-.7-1.7h1.5c0,.4.3.8.6,1.1.3.3.7.5,1.2.7.5.2,1.1.3,1.7.3.9,0,1.7-.1,2.2-.4.5-.3.8-.7.8-1.2s-.2-.7-.5-.8c-.3-.2-1-.3-1.9-.4l-1.7-.2c-.9,0-1.6-.2-2.1-.5-.5-.2-.9-.5-1.1-.9-.2-.4-.3-.7-.3-1.2s.2-1.1.5-1.5c.4-.4.9-.7,1.5-.9.6-.2,1.4-.3,2.2-.3s1.7.1,2.4.4c.7.3,1.3.6,1.7,1.1.4.5.6,1,.7,1.6h-1.5c0-.3-.2-.7-.5-.9-.3-.3-.6-.5-1.1-.7-.5-.2-1.1-.3-1.7-.3s-1.5.1-2,.4c-.5.2-.7.6-.7,1.1s.2.6.5.8c.3.2.9.3,1.6.4l2,.2c.9,0,1.6.2,2.1.4.5.2.9.5,1.1.8.2.3.3.8.3,1.2ZM256.1,74.4c0,.6-.2,1.1-.5,1.5-.3.4-.8.8-1.5,1-.7.2-1.5.4-2.4.4s-1.8-.1-2.6-.4c-.7-.3-1.3-.7-1.7-1.2s-.6-1.1-.7-1.7h1.5c0,.4.3.8.6,1.1.3.3.7.5,1.2.7.5.2,1.1.3,1.7.3.9,0,1.7-.1,2.2-.4.5-.3.8-.7.8-1.2s-.2-.7-.5-.8c-.3-.2-1-.3-1.9-.4l-1.7-.2c-.9,0-1.6-.2-2.1-.5-.5-.2-.9-.5-1.1-.9-.2-.4-.3-.7-.3-1.2s.2-1.1.5-1.5c.4-.4.9-.7,1.5-.9.6-.2,1.4-.3,2.2-.3s1.7.1,2.4.4c.7.3,1.3.6,1.7,1.1.4.5.6,1,.7,1.6h-1.5c0-.3-.2-.7-.5-.9-.3-.3-.6-.5-1.1-.7-.5-.2-1.1-.3-1.7-.3s-1.5.1-2,.4c-.5.2-.7.6-.7,1.1s.2.6.5.8c.3.2.9.3,1.6.4l2,.2c.9,0,1.6.2,2.1.4.5.2.9.5,1.1.8.2.3.3.8.3,1.2ZM258,68h.7c0,.1.7,0,.7,0v9h-1.5v-9ZM258.7,66.6c-.3,0-.6,0-.8-.3-.2-.2-.3-.4-.3-.7s.1-.5.3-.7c.2-.2.5-.3.8-.3s.6,0,.8.3c.2.2.3.4.3.7s-.1.5-.3.7c-.2.2-.5.3-.8.3ZM270.6,74.4c0,.6-.2,1.1-.5,1.5-.3.4-.8.8-1.5,1-.7.2-1.5.4-2.4.4s-1.8-.1-2.6-.4c-.7-.3-1.3-.7-1.7-1.2-.4-.5-.6-1.1-.7-1.7h1.5c0,.4.2.8.6,1.1.3.3.7.5,1.2.7.5.2,1.1.3,1.7.3.9,0,1.7-.1,2.2-.4.5-.3.8-.7.8-1.2s-.2-.7-.5-.8c-.3-.2-1-.3-1.9-.4l-1.7-.2c-.9,0-1.6-.2-2.1-.5-.5-.2-.9-.5-1.1-.9-.2-.4-.3-.7-.3-1.2s.2-1.1.5-1.5c.4-.4.9-.7,1.5-.9.6-.2,1.4-.3,2.2-.3s1.7.1,2.4.4c.7.3,1.3.6,1.7,1.1.4.5.6,1,.7,1.6h-1.5c0-.3-.2-.7-.5-.9-.3-.3-.6-.5-1.1-.7-.5-.2-1.1-.3-1.7-.3s-1.5.1-2,.4c-.5.2-.7.6-.7,1.1s.2.6.5.8c.3.2.9.3,1.6.4l2,.2c.9,0,1.6.2,2.1.4.5.2.9.5,1.1.8.2.3.3.8.3,1.2ZM271.2,69.2v-.7l2-.4.6-2.4h.9v2.3h4.4v1.2h-4.4v4.6c0,.8.2,1.4.5,1.7.4.3.9.5,1.7.5s.9,0,1.3-.2c.4-.1.7-.3,1.1-.5v1.3c-.3.2-.6.3-1.1.4-.5.1-1,.2-1.5.2-.8,0-1.5-.1-2-.4-.5-.3-.8-.7-1.1-1.2-.2-.5-.3-1-.3-1.7v-4.8h-2ZM289.1,77l-.3-3.4.4-1.1-.4-1.1.3-3.4h1.5l-.4,4.5.4,4.5h-1.5ZM289.7,72.5c-.2.9-.6,1.8-1.1,2.5-.5.7-1.1,1.3-1.8,1.6-.7.4-1.4.6-2.3.6s-1.7-.2-2.4-.6c-.7-.4-1.2-1-1.6-1.7-.4-.7-.6-1.5-.6-2.5s.2-1.8.6-2.5c.4-.7.9-1.3,1.6-1.6.7-.4,1.5-.6,2.4-.6s1.6.2,2.3.6c.7.4,1.3.9,1.8,1.6.5.7.8,1.5,1.1,2.5ZM281.5,72.5c0,.7.1,1.3.4,1.8.3.5.7.9,1.2,1.2.5.3,1.1.4,1.7.4s1.2-.1,1.8-.4c.5-.3,1-.7,1.4-1.2.4-.5.8-1.1,1-1.8-.3-.7-.6-1.3-1-1.8-.4-.5-.9-.9-1.4-1.2-.5-.3-1.1-.4-1.8-.4s-1.2.1-1.7.4c-.5.3-.9.7-1.2,1.2-.3.5-.4,1.1-.4,1.8ZM292.4,68h1.5l.5,3.1v6h-1.5v-6.2l-.5-2.8ZM298.1,67.8c.8,0,1.6.2,2.1.5.6.3,1,.8,1.3,1.5.3.6.5,1.4.5,2.3v5h-1.5v-4.7c0-1.1-.3-1.9-.8-2.4-.5-.6-1.2-.8-2.2-.8s-1.2.1-1.7.4c-.5.3-.9.7-1.2,1.2-.3.5-.4,1.1-.4,1.8l-.6-.4c0-.9.3-1.7.7-2.3.4-.7.9-1.2,1.5-1.5.6-.4,1.3-.5,2.1-.5ZM303,69.2v-.7l2-.4.6-2.4h.9v2.3h4.4v1.2h-4.4v4.6c0,.8.2,1.4.5,1.7.4.3.9.5,1.7.5s.9,0,1.3-.2c.4-.1.7-.3,1.1-.5v1.3c-.3.2-.6.3-1.1.4-.5.1-1,.2-1.5.2-.8,0-1.5-.1-2-.4-.5-.3-.8-.7-1.1-1.2-.2-.5-.3-1-.3-1.7v-4.8h-2Z"/>
  <path class="st1" d="M228,89.8v.9h-2.4v6.3h-1v-6.3h-2.4v-.9h5.8ZM231.6,96.2c.3,0,.6,0,.8-.1.4-.1.7-.4.9-.7.2-.3.3-.7.4-1.1,0-.3,0-.5,0-.8,0-.9-.2-1.6-.5-2.1-.4-.5-.9-.7-1.7-.7h-1.7v5.5h1.7ZM228.9,89.8h2.9c1,0,1.8.3,2.3,1,.5.6.7,1.4.7,2.4s-.1,1.5-.4,2.1c-.5,1.1-1.4,1.6-2.6,1.6h-2.9v-7.2ZM239.1,89.6c.9,0,1.6.2,2.1.7.5.5.8,1,.8,1.6h-.9c-.1-.5-.3-.8-.6-1.1-.3-.3-.8-.4-1.3-.4s-1.3.2-1.7.7c-.4.5-.6,1.3-.6,2.3s.2,1.5.6,2c.4.5,1,.8,1.8.8s1.3-.3,1.6-.8c.2-.3.3-.7.4-1.1h.9c0,.8-.4,1.4-.8,1.9-.6.6-1.3.9-2.3.9s-1.5-.3-2.1-.8c-.7-.7-1.1-1.7-1.1-3.1s.3-1.9.8-2.6c.6-.7,1.4-1.1,2.5-1.1ZM246.1,89.8h1.1l3.6,5.8v-5.8h.9v7.2h-1.1l-3.7-5.8v5.8h-.9v-7.2ZM253.4,89.8h5.2v.9h-4.3v2.2h4v.8h-4v2.4h4.4v.9h-5.3v-7.2ZM265.2,89.8v.9h-2.4v6.3h-1v-6.3h-2.4v-.9h5.8Z"/>
  <path class="st1" d="M222.7,104.3c0-.3,0-.7.2-.9.1-.3.3-.5.5-.7.2-.2.4-.4.7-.5.3-.1.6-.2.9-.2s.7,0,.9.2c.3,0,.5.2.7.4.2.2.3.4.4.6,0,.2.1.5.1.8s0,.6-.2.8c-.1.2-.2.5-.4.6-.2.2-.4.4-.6.5-.2.1-.4.3-.7.4-.2.1-.4.2-.7.4-.2.1-.4.2-.6.4-.1,0-.2.2-.3.3-.1,0-.2.2-.3.3,0,.1-.2.2-.2.4,0,.1,0,.3,0,.4h3.9v.5h-4.6c0-.3,0-.6.1-.9,0-.3.2-.5.4-.8.2-.3.5-.5.8-.7.3-.2.5-.4.8-.5.3-.2.5-.3.7-.4.2-.1.4-.3.6-.4s.3-.3.4-.5c0-.2.1-.4.1-.7s0-.4-.1-.6-.2-.3-.3-.5c-.1-.1-.3-.2-.5-.3-.2,0-.4,0-.6,0s-.4,0-.6.2c-.2,0-.3.2-.5.4-.1.2-.2.3-.3.6,0,.2-.1.4,0,.7h-.7ZM232.1,105.5c0-.4,0-.8,0-1.1,0-.4-.1-.7-.2-1-.1-.3-.3-.5-.5-.7-.2-.2-.5-.3-.9-.3s-.6,0-.9.3c-.2.2-.4.4-.5.7-.1.3-.2.6-.3,1,0,.4,0,.8,0,1.1s0,.9,0,1.2c0,.4.2.7.3.9.1.3.3.5.5.6.2.1.5.2.9.2s.7,0,.9-.3c.2-.2.4-.4.5-.7.1-.3.2-.6.2-1,0-.4,0-.7,0-1.1ZM230.3,101.9c.3,0,.6,0,.9.2.3,0,.5.2.6.4.2.2.3.4.4.6.1.2.2.5.3.8,0,.3.1.5.1.8,0,.3,0,.6,0,.8,0,.5,0,.9,0,1.3,0,.4-.2.8-.4,1.1-.2.3-.4.6-.7.8-.3.2-.7.3-1.2.3s-.9,0-1.2-.3c-.3-.2-.5-.5-.7-.8-.2-.3-.3-.7-.4-1.2,0-.4,0-.9,0-1.4s0-.9,0-1.3.2-.8.3-1.1c.2-.3.4-.6.7-.8.3-.2.7-.3,1.2-.3ZM233.8,104.3c0-.3,0-.7.2-.9.1-.3.3-.5.5-.7.2-.2.4-.4.7-.5.3-.1.6-.2.9-.2s.7,0,.9.2c.3,0,.5.2.7.4.2.2.3.4.4.6,0,.2.1.5.1.8s0,.6-.2.8c0,.2-.2.5-.4.6-.2.2-.4.4-.6.5-.2.1-.4.3-.7.4-.2.1-.4.2-.7.4-.2.1-.4.2-.6.4-.1,0-.2.2-.3.3-.1,0-.2.2-.3.3,0,.1-.2.2-.2.4,0,.1,0,.3,0,.4h3.9v.5h-4.6c0-.3,0-.6.1-.9,0-.3.2-.5.4-.8.2-.3.5-.5.8-.7.3-.2.5-.4.8-.5.3-.2.5-.3.7-.4.2-.1.4-.3.6-.4.2-.2.3-.3.4-.5.1-.2.2-.4.2-.7s0-.4-.1-.6c0-.2-.2-.3-.3-.5-.1-.1-.3-.2-.5-.3-.2,0-.4,0-.6,0s-.4,0-.6.2c-.2,0-.4.2-.5.4-.1.2-.2.3-.3.6,0,.2-.1.4,0,.7h-.7ZM242.2,107.3h-3.2v-.6l3.3-4.7h.6v4.7h1v.5h-1v1.7h-.6v-1.7ZM239.7,106.7h2.6v-3.7l-2.6,3.7Z"/>
  <path class="st1" d="M42.9,179v12h-1.4v-11.6h.6s-6.1,11.6-6.1,11.6h-1.6l-6.1-11.6h.6s0,11.6,0,11.6h-1.4v-12h2.3l5.9,11.5h-.9l5.9-11.5h2.3ZM49.2,191.2c-.8,0-1.5-.2-2.1-.5-.6-.3-1-.8-1.3-1.5-.3-.6-.4-1.4-.4-2.3v-4.9h1.5v4.7c0,1.1.2,1.9.7,2.4.5.5,1.2.8,2.1.8s1.2-.1,1.7-.4c.5-.3.9-.7,1.1-1.2.3-.5.4-1.2.4-1.9l.6.3c0,.9-.3,1.7-.7,2.4-.4.7-.9,1.2-1.5,1.6-.6.4-1.3.5-2.1.5ZM53.3,191l-.5-3.1v-5.9h1.5v6.2l.5,2.8h-1.5ZM56.8,178.7h1.5v12.3h-1.5v-12.3ZM59.5,183.2v-.7l2-.4.6-2.4h.9v2.3h4.4v1.2h-4.4v4.6c0,.8.2,1.4.5,1.7.4.3.9.5,1.7.5s.9,0,1.3-.2c.4-.1.7-.3,1.1-.5v1.3c-.3.2-.6.3-1.1.4-.5.1-1,.2-1.5.2-.8,0-1.5-.1-2-.4-.5-.3-.8-.7-1.1-1.2-.2-.5-.3-1-.3-1.7v-4.8h-2ZM69.1,182h.7c0,.1.7,0,.7,0v9h-1.5v-9ZM69.8,180.6c-.3,0-.6,0-.8-.3-.2-.2-.3-.4-.3-.7s.1-.5.3-.7c.2-.2.5-.3.8-.3s.6,0,.8.3c.2.2.3.4.3.7s-.1.5-.3.7c-.2.2-.5.3-.8.3ZM72.5,182h1.5l.5,3.1v6h-1.5v-6.2l-.5-2.8ZM78,181.8c.8,0,1.4.2,2,.5.5.3,1,.8,1.2,1.5.3.6.4,1.4.4,2.3v5h-1.5v-4.7c0-1.1-.2-1.9-.7-2.4-.4-.6-1.1-.8-2-.8s-1.1.1-1.6.4c-.4.3-.8.7-1,1.2-.2.5-.4,1.1-.4,1.8l-.6-.4c0-.9.3-1.7.6-2.3.4-.7.8-1.2,1.4-1.5.6-.4,1.2-.5,2-.5ZM85,181.8c.8,0,1.4.2,2,.5.6.3,1,.8,1.3,1.5.3.6.4,1.4.4,2.3v5h-1.5v-4.7c0-1.1-.2-1.9-.7-2.4-.4-.6-1.1-.8-2-.8s-1.1.1-1.6.4c-.4.3-.8.7-1,1.2-.2.5-.4,1.1-.4,1.8l-.6-.4c0-.9.3-1.7.6-2.3.4-.7.8-1.2,1.4-1.5.6-.4,1.2-.5,2-.5ZM95.7,191.2c-1,0-2-.2-2.8-.6-.8-.4-1.4-1-1.9-1.7-.4-.7-.7-1.5-.7-2.5s.2-1.8.6-2.5c.4-.7,1-1.3,1.8-1.6.8-.4,1.6-.6,2.6-.6s1.8.2,2.5.6c.7.4,1.3,1,1.7,1.8.4.8.6,1.7.6,2.7h-8.7v-1.2h8.1l-.9.5c0-.7-.2-1.3-.5-1.7-.3-.5-.7-.9-1.2-1.1-.5-.3-1.1-.4-1.7-.4s-1.3.1-1.8.4c-.5.3-.9.7-1.2,1.2-.3.5-.4,1.1-.4,1.8s.2,1.4.5,1.9c.3.5.8.9,1.4,1.2.6.3,1.3.4,2.1.4s1.5-.1,2.2-.4c.7-.2,1.4-.6,1.9-1v1.2c-.6.4-1.2.8-2,1.1-.8.3-1.5.4-2.3.4ZM110.7,191l-.3-3.4.4-1.1-.4-1.1.6-6.7h1.5l-.8,7.7.4,4.6h-1.5ZM111.3,186.5c-.2.9-.6,1.8-1.1,2.5-.5.7-1.1,1.3-1.8,1.6-.7.4-1.4.6-2.3.6s-1.7-.2-2.4-.6c-.7-.4-1.2-1-1.6-1.7-.4-.7-.6-1.5-.6-2.5s.2-1.8.6-2.5c.4-.7.9-1.3,1.6-1.6.7-.4,1.5-.6,2.4-.6s1.6.2,2.3.6c.7.4,1.3.9,1.8,1.6.5.7.8,1.5,1.1,2.5ZM103.1,186.5c0,.7.1,1.3.4,1.8.3.5.7.9,1.2,1.2.5.3,1.1.4,1.7.4s1.2-.1,1.8-.4c.5-.3,1-.7,1.4-1.2.4-.5.8-1.1,1-1.8-.3-.7-.6-1.3-1-1.8-.4-.5-.9-.9-1.4-1.2-.5-.3-1.1-.4-1.8-.4s-1.2.1-1.7.4c-.5.3-.9.7-1.2,1.2-.3.5-.4,1.1-.4,1.8ZM114.4,182h.7c0,.1.7,0,.7,0v9h-1.5v-9ZM115.1,180.6c-.3,0-.6,0-.8-.3-.2-.2-.3-.4-.3-.7s.1-.5.3-.7c.2-.2.5-.3.8-.3s.6,0,.8.3c.2.2.3.4.3.7s-.1.5-.3.7c-.2.2-.5.3-.8.3ZM123,191.2c-1,0-2-.2-2.8-.6-.8-.4-1.4-1-1.9-1.7-.4-.7-.7-1.5-.7-2.5s.2-1.8.6-2.5c.4-.7,1-1.3,1.8-1.6.8-.4,1.6-.6,2.6-.6s1.8.2,2.5.6c.7.4,1.3,1,1.7,1.8.4.8.6,1.7.6,2.7h-8.7v-1.2h8.1l-.9.5c0-.7-.2-1.3-.5-1.7-.3-.5-.7-.9-1.2-1.1-.5-.3-1.1-.4-1.7-.4s-1.3.1-1.8.4c-.5.3-.9.7-1.2,1.2-.3.5-.4,1.1-.4,1.8s.2,1.4.5,1.9c.3.5.8.9,1.4,1.2.6.3,1.3.4,2.1.4s1.5-.1,2.2-.4c.7-.2,1.4-.6,1.9-1v1.2c-.6.4-1.2.8-2,1.1-.8.3-1.5.4-2.3.4ZM35.8,211l-.3-3.4.4-1.1-.4-1.1.6-6.7h1.5l-.8,7.7.4,4.6h-1.5ZM36.3,206.5c-.2.9-.6,1.8-1.1,2.5-.5.7-1.1,1.3-1.8,1.6-.7.4-1.4.6-2.3.6s-1.7-.2-2.4-.6c-.7-.4-1.2-1-1.6-1.7-.4-.7-.6-1.5-.6-2.5s.2-1.8.6-2.5c.4-.7.9-1.3,1.6-1.6.7-.4,1.5-.6,2.4-.6s1.6.2,2.3.6c.7.4,1.3.9,1.8,1.6s.8,1.5,1.1,2.5ZM28.2,206.5c0,.7.1,1.3.4,1.8.3.5.7.9,1.2,1.2.5.3,1.1.4,1.7.4s1.2-.1,1.8-.4c.5-.3,1-.7,1.4-1.2.4-.5.8-1.1,1-1.8-.3-.7-.6-1.3-1-1.8-.4-.5-.9-.9-1.4-1.2-.5-.3-1.1-.4-1.8-.4s-1.2.1-1.7.4c-.5.3-.9.7-1.2,1.2-.3.5-.4,1.1-.4,1.8ZM44.2,211.2c-1,0-2-.2-2.8-.6-.8-.4-1.4-1-1.9-1.7-.4-.7-.7-1.5-.7-2.5s.2-1.8.6-2.5c.4-.7,1-1.3,1.8-1.6.8-.4,1.6-.6,2.6-.6s1.8.2,2.5.6c.7.4,1.3,1,1.7,1.8.4.8.6,1.7.6,2.7h-8.7v-1.2h8.1l-.9.5c0-.7-.2-1.3-.5-1.7-.3-.5-.7-.9-1.2-1.1-.5-.3-1.1-.4-1.7-.4s-1.3.1-1.8.4c-.5.3-.9.7-1.2,1.2-.3.5-.4,1.1-.4,1.8s.2,1.4.5,1.9c.3.5.8.9,1.4,1.2.6.3,1.3.4,2.1.4s1.5-.1,2.2-.4c.7-.2,1.4-.6,1.9-1v1.2c-.6.4-1.2.8-2,1.1-.8.3-1.5.4-2.3.4ZM59.4,208.4c0,.6-.2,1.1-.5,1.5-.3.4-.8.8-1.5,1-.7.2-1.5.4-2.4.4s-1.8-.1-2.6-.4c-.7-.3-1.3-.7-1.7-1.2-.4-.5-.6-1.1-.7-1.7h1.5c0,.4.3.8.6,1.1.3.3.7.5,1.2.7.5.2,1.1.3,1.7.3.9,0,1.7-.1,2.2-.4.5-.3.8-.7.8-1.2s-.2-.7-.5-.8c-.3-.2-1-.3-1.9-.4l-1.7-.2c-.9,0-1.6-.2-2.1-.5-.5-.2-.9-.5-1.1-.9-.2-.4-.3-.7-.3-1.2s.2-1.1.5-1.5c.4-.4.9-.7,1.5-.9.6-.2,1.4-.3,2.2-.3s1.7.1,2.4.4c.7.3,1.3.6,1.7,1.1s.6,1,.7,1.6h-1.5c0-.3-.2-.7-.5-.9-.3-.3-.6-.5-1.1-.7-.5-.2-1.1-.3-1.7-.3s-1.5.1-2,.4c-.5.2-.7.6-.7,1.1s.2.6.5.8c.3.2.9.3,1.6.4l2,.2c.9,0,1.6.2,2.1.4.5.2.9.5,1.1.8.2.3.3.8.3,1.2ZM61.2,202h.7c0,.1.7,0,.7,0v9h-1.5v-9ZM62,200.6c-.3,0-.6,0-.8-.3-.2-.2-.3-.4-.3-.7s.1-.5.3-.7c.2-.2.5-.3.8-.3s.6,0,.8.3c.2.2.3.4.3.7s-.1.5-.3.7c-.2.2-.5.3-.8.3ZM73.5,208.8v-1.9c0,0,0-1.5,0-1.5v-.3c0,0,0-3.2,0-3.2h1.5v6.6c0,1.2-.2,2.1-.7,2.9-.5.8-1.1,1.4-1.9,1.7-.8.4-1.7.6-2.8.6s-1.5-.1-2.2-.3c-.7-.2-1.3-.5-1.9-1v-1.3c.6.5,1.3.9,2,1.1.7.2,1.4.3,2,.3,1.3,0,2.3-.3,3-1,.7-.7,1-1.6,1-2.8ZM68.9,210.4c-.8,0-1.5-.2-2.2-.5-.7-.4-1.2-.9-1.6-1.5-.4-.7-.6-1.4-.6-2.3s.2-1.6.6-2.3c.4-.7.9-1.2,1.6-1.5.7-.4,1.4-.5,2.2-.5s1.2,0,1.7.3c.5.2,1,.4,1.4.7.4.3.8.7,1.1,1,.3.4.5.8.7,1.2.2.4.3.7.3,1.1s-.1.9-.4,1.4c-.2.5-.6,1-1.1,1.4-.5.4-1,.8-1.6,1.1-.6.3-1.3.4-2.1.4ZM69.3,209.2c.8,0,1.6-.2,2.3-.7s1.3-1.3,1.9-2.4c-.6-1.1-1.2-1.9-1.9-2.4-.7-.5-1.5-.7-2.3-.7s-1.3.1-1.8.4c-.5.3-.8.6-1.1,1.1-.2.5-.4,1-.4,1.6s.1,1.1.4,1.6c.3.5.6.8,1.1,1.1.5.3,1.1.4,1.8.4ZM76.9,202h1.5l.5,3.1v6h-1.5v-6.2l-.5-2.8ZM82.6,201.8c.8,0,1.6.2,2.1.5.6.3,1,.8,1.3,1.5.3.6.5,1.4.5,2.3v5h-1.5v-4.7c0-1.1-.3-1.9-.8-2.4-.5-.6-1.2-.8-2.2-.8s-1.2.1-1.7.4c-.5.3-.9.7-1.2,1.2-.3.5-.4,1.1-.4,1.8l-.6-.4c0-.9.3-1.7.7-2.3s.9-1.2,1.5-1.5c.6-.4,1.3-.5,2.1-.5ZM93.5,211.2c-1,0-2-.2-2.8-.6-.8-.4-1.4-1-1.9-1.7-.4-.7-.7-1.5-.7-2.5s.2-1.8.6-2.5c.4-.7,1-1.3,1.8-1.6.8-.4,1.6-.6,2.6-.6s1.8.2,2.5.6c.7.4,1.3,1,1.7,1.8.4.8.6,1.7.6,2.7h-8.7v-1.2h8.1l-.9.5c0-.7-.2-1.3-.5-1.7s-.7-.9-1.2-1.1c-.5-.3-1.1-.4-1.7-.4s-1.3.1-1.8.4c-.5.3-.9.7-1.2,1.2-.3.5-.4,1.1-.4,1.8s.2,1.4.5,1.9c.3.5.8.9,1.4,1.2.6.3,1.3.4,2.1.4s1.5-.1,2.2-.4c.7-.2,1.4-.6,1.9-1v1.2c-.6.4-1.2.8-2,1.1-.8.3-1.5.4-2.3.4ZM99.5,202h1.5l.5,3.1v5.9h-1.5v-6.2l-.5-2.8ZM106.3,202v1.3c-.2,0-.4-.1-.7-.1-.3,0-.5,0-.8,0-.6,0-1.2.1-1.7.4-.5.3-.9.7-1.2,1.3-.3.5-.4,1.2-.4,1.9l-.4-.6c0-.6.1-1.2.3-1.7.2-.5.4-1,.8-1.4.3-.4.7-.7,1.2-.9.5-.2,1-.3,1.6-.3s.5,0,.7,0c.2,0,.4,0,.6.1Z"/>
  <path class="st1" d="M29.8,221.6c.9,0,1.6.2,2.1.7.5.5.8,1,.8,1.6h-.9c-.1-.5-.3-.8-.6-1.1-.3-.3-.8-.4-1.3-.4s-1.3.2-1.7.7c-.4.5-.6,1.3-.6,2.3s.2,1.5.6,2c.4.5,1,.8,1.8.8s1.3-.3,1.6-.8c.2-.3.3-.7.4-1.1h.9c0,.8-.4,1.4-.8,1.9-.6.6-1.3.9-2.3.9s-1.5-.3-2.1-.8c-.7-.7-1.1-1.7-1.1-3.1s.3-1.9.8-2.6c.6-.7,1.4-1.1,2.5-1.1ZM35.9,228.4c.6,0,1-.2,1.2-.7.2-.4.3-.9.3-1.5s0-.9-.2-1.2c-.2-.5-.7-.7-1.3-.7s-.9.2-1.2.6c-.2.4-.4.9-.4,1.5s.1,1,.4,1.4c.2.4.6.6,1.2.6ZM36,223.6c.7,0,1.2.2,1.7.7.5.4.7,1.1.7,2s-.2,1.5-.6,2.1c-.4.5-1,.8-1.9.8s-1.3-.2-1.7-.7c-.4-.5-.6-1.1-.6-2s.2-1.6.7-2.1c.4-.5,1-.8,1.8-.8ZM41.6,228.4c.4,0,.8-.2,1-.5.3-.3.4-.9.4-1.5s0-.8-.2-1.1c-.2-.6-.6-.9-1.2-.9s-1,.3-1.2.9c-.1.3-.2.7-.2,1.2s0,.7.2,1c.2.5.6.8,1.2.8ZM39.4,223.8h.9v.7c.2-.2.4-.4.6-.6.3-.2.6-.3,1-.3.6,0,1.1.2,1.5.7.4.5.6,1.1.6,1.9s-.3,2-.9,2.4c-.4.3-.8.5-1.3.5s-.7,0-1-.3c-.2,0-.3-.3-.5-.5v2.7h-.9v-7.3ZM47.2,223.7c.4,0,.7,0,1.1.3.3.2.6.4.8.7.2.3.3.6.4.9,0,.2,0,.6,0,1.2h-3.8c0,.5.1,1,.4,1.3.2.3.6.5,1.1.5s.8-.2,1.1-.5c.2-.2.3-.4.3-.6h.9c0,.2,0,.4-.2.6-.1.2-.3.4-.4.6-.3.3-.6.4-1,.5-.2,0-.5,0-.7,0-.7,0-1.2-.2-1.7-.7-.5-.5-.7-1.1-.7-2s.2-1.5.7-2c.5-.5,1.1-.8,1.8-.8ZM48.6,226c0-.4-.1-.7-.2-.9-.2-.4-.6-.6-1.2-.6s-.7.1-1,.4c-.3.3-.4.7-.4,1.1h2.9ZM50.6,223.8h.8v.7c.2-.3.5-.5.8-.7.3-.1.6-.2.9-.2.7,0,1.2.3,1.5.8.1.3.2.7.2,1.2v3.4h-.9v-3.3c0-.3,0-.6-.1-.8-.2-.3-.4-.5-.8-.5s-.4,0-.5,0c-.2,0-.5.2-.6.4-.1.2-.2.4-.3.5,0,.2,0,.4,0,.8v2.7h-.9v-5.2ZM56.1,221.8h.9v2.7c.2-.3.4-.4.6-.6.3-.2.6-.3,1.1-.3.8,0,1.3.3,1.5.8.1.3.2.7.2,1.2v3.4h-.9v-3.3c0-.4,0-.7-.1-.8-.2-.3-.5-.4-.9-.4s-.7.1-1,.4c-.3.2-.4.7-.4,1.4v2.8h-.9v-7.2ZM62.4,227.6c0,.3,0,.5.3.6.2.1.4.2.7.2s.6,0,.9-.2c.5-.2.7-.6.7-1.2v-.7c-.1,0-.2.1-.4.2-.2,0-.3,0-.5,0h-.5c-.3.1-.6.2-.7.3-.3.2-.4.4-.4.7ZM64.5,225.8c.2,0,.3-.1.4-.3,0,0,0-.2,0-.3,0-.3-.1-.5-.3-.6-.2-.1-.5-.2-.9-.2s-.8.1-1,.4c-.1.1-.2.3-.2.6h-.8c0-.6.2-1.1.6-1.3.4-.3.9-.4,1.4-.4s1.1.1,1.5.4c.4.2.6.6.6,1.1v3c0,0,0,.2,0,.2,0,0,.1,0,.2,0s0,0,.1,0c0,0,.1,0,.2,0v.6c-.1,0-.2,0-.3,0,0,0-.2,0-.3,0-.3,0-.5-.1-.7-.3,0-.1-.1-.3-.2-.5-.2.2-.4.4-.8.6-.3.2-.7.3-1.1.3s-.9-.1-1.2-.4c-.3-.3-.5-.7-.5-1.1s.2-.9.5-1.1.7-.4,1.2-.5l1.4-.2ZM69.1,223.7c.4,0,.8.1,1.1.3.2.1.3.3.5.5v-.7h.8v4.8c0,.7,0,1.2-.3,1.6-.4.7-1.1,1.1-2.1,1.1s-1-.1-1.4-.4c-.4-.3-.6-.6-.6-1.2h.9c0,.2.1.4.3.5.2.2.5.3.9.3.7,0,1.1-.2,1.3-.7.1-.3.2-.8.2-1.5-.2.3-.4.5-.6.6-.2.1-.6.2-1,.2s-1.1-.2-1.5-.6c-.4-.4-.6-1.1-.6-2s.2-1.6.6-2.1c.4-.5.9-.7,1.6-.7ZM70.7,226.4c0-.6-.1-1.1-.4-1.4-.3-.3-.6-.5-1-.5-.6,0-1,.3-1.3.9-.1.3-.2.7-.2,1.2s.1,1,.4,1.3c.2.3.6.5,1,.5.6,0,1.1-.3,1.3-.9.1-.3.2-.7.2-1.1ZM75,223.7c.4,0,.7,0,1.1.3.3.2.6.4.8.7.2.3.3.6.4.9,0,.2,0,.6,0,1.2h-3.8c0,.5.1,1,.4,1.3.2.3.6.5,1.1.5s.8-.2,1.1-.5c.2-.2.3-.4.3-.6h.9c0,.2,0,.4-.2.6-.1.2-.3.4-.4.6-.3.3-.6.4-1,.5-.2,0-.5,0-.7,0-.7,0-1.2-.2-1.7-.7-.5-.5-.7-1.1-.7-2s.2-1.5.7-2c.5-.5,1.1-.8,1.8-.8ZM76.4,226c0-.4-.1-.7-.2-.9-.2-.4-.6-.6-1.2-.6s-.7.1-1,.4c-.3.3-.4.7-.4,1.1h2.9ZM78.4,223.8h.8v.7c.2-.3.5-.5.8-.7.3-.1.6-.2.9-.2.7,0,1.2.3,1.5.8.1.3.2.7.2,1.2v3.4h-.9v-3.3c0-.3,0-.6-.1-.8-.2-.3-.4-.5-.8-.5s-.4,0-.5,0c-.2,0-.5.2-.6.4-.1.2-.2.4-.3.5,0,.2,0,.4,0,.8v2.7h-.9v-5.2ZM27.4,236.7c0,.4.1.7.3,1,.3.5.9.7,1.7.7s.7,0,1-.2c.6-.2.9-.6.9-1.1s-.1-.7-.4-.8c-.2-.2-.6-.3-1.2-.4l-1-.2c-.6-.1-1.1-.3-1.3-.5-.5-.3-.7-.7-.7-1.3s.2-1.2.7-1.6c.4-.4,1.1-.6,1.9-.6s1.4.2,1.9.5c.5.4.8.9.8,1.7h-.9c0-.4-.2-.7-.3-.9-.3-.4-.8-.6-1.5-.6s-1,.1-1.2.4c-.3.2-.4.5-.4.8s.1.6.4.8c.2.1.6.2,1.3.4l1,.2c.5.1.9.3,1.1.5.5.3.7.8.7,1.5s-.3,1.4-.9,1.7c-.6.3-1.2.5-2,.5s-1.6-.2-2.1-.7c-.5-.5-.8-1.1-.7-1.8h.9ZM35.3,233.6c.6,0,1.1.1,1.4.4.4.3.6.8.7,1.5h-.9c0-.3-.2-.6-.4-.8-.2-.2-.5-.3-.9-.3s-1,.3-1.2.8c-.2.4-.2.8-.2,1.3s.1,1,.3,1.3c.2.4.6.5,1,.5s.7-.1.9-.3c.2-.2.4-.5.4-.9h.9c0,.7-.3,1.2-.7,1.5-.4.3-.9.5-1.5.5s-1.2-.2-1.6-.7c-.4-.5-.6-1.1-.6-1.9s.2-1.6.7-2.1c.4-.5,1-.8,1.7-.8ZM38.3,231.8h.9v2.7c.2-.3.4-.4.6-.6.3-.2.6-.3,1.1-.3.8,0,1.3.3,1.5.8.1.3.2.7.2,1.2v3.4h-.9v-3.3c0-.4,0-.7-.1-.8-.2-.3-.5-.4-.9-.4s-.7.1-1,.4c-.3.2-.4.7-.4,1.4v2.8h-.9v-7.2ZM46,238.4c.6,0,1-.2,1.2-.7.2-.4.3-.9.3-1.5s0-.9-.2-1.2c-.2-.5-.7-.7-1.3-.7s-.9.2-1.2.6c-.2.4-.4.9-.4,1.5s.1,1,.4,1.4c.2.4.6.6,1.2.6ZM46,233.6c.7,0,1.2.2,1.7.7s.7,1.1.7,2-.2,1.5-.6,2.1c-.4.5-1,.8-1.9.8s-1.3-.2-1.7-.7c-.4-.5-.6-1.1-.6-2s.2-1.6.7-2.1c.4-.5,1-.8,1.8-.8ZM51.5,238.4c.6,0,1-.2,1.2-.7.2-.4.3-.9.3-1.5s0-.9-.2-1.2c-.2-.5-.7-.7-1.3-.7s-.9.2-1.2.6c-.2.4-.4.9-.4,1.5s.1,1,.4,1.4c.2.4.6.6,1.2.6ZM51.6,233.6c.7,0,1.2.2,1.7.7s.7,1.1.7,2-.2,1.5-.6,2.1c-.4.5-1,.8-1.9.8s-1.3-.2-1.7-.7c-.4-.5-.6-1.1-.6-2s.2-1.6.7-2.1c.4-.5,1-.8,1.8-.8ZM55,231.8h.9v7.2h-.9v-7.2ZM62.1,238.4c.6,0,1-.2,1.2-.7.2-.4.3-.9.3-1.5s0-.9-.2-1.2c-.2-.5-.7-.7-1.3-.7s-.9.2-1.2.6c-.2.4-.4.9-.4,1.5s.1,1,.4,1.4c.2.4.6.6,1.2.6ZM62.1,233.6c.7,0,1.2.2,1.7.7.5.4.7,1.1.7,2s-.2,1.5-.6,2.1c-.4.5-1,.8-1.9.8s-1.3-.2-1.7-.7c-.4-.5-.6-1.1-.6-2s.2-1.6.7-2.1c.4-.5,1-.8,1.8-.8ZM67.4,233.7c.4,0,.8.1,1.1.3.2.1.3.3.5.5v-.7h.8v4.8c0,.7,0,1.2-.3,1.6-.4.7-1.1,1.1-2.1,1.1s-1-.1-1.4-.4c-.4-.3-.6-.6-.6-1.2h.9c0,.2.1.4.3.5.2.2.5.3.9.3.7,0,1.1-.2,1.3-.7.1-.3.2-.8.2-1.5-.2.3-.4.5-.6.6-.2.1-.6.2-1,.2s-1.1-.2-1.5-.6c-.4-.4-.6-1.1-.6-2s.2-1.6.6-2.1c.4-.5.9-.7,1.6-.7ZM69,236.4c0-.6-.1-1.1-.4-1.4-.3-.3-.6-.5-1-.5-.6,0-1,.3-1.3.9-.1.3-.2.7-.2,1.2s.1,1,.4,1.3c.2.3.6.5,1,.5.6,0,1.1-.3,1.3-.9.1-.3.2-.7.2-1.1ZM76.8,238.2c.3,0,.6,0,.8-.1.4-.1.7-.4.9-.7.2-.3.3-.7.4-1.1,0-.3,0-.5,0-.8,0-.9-.2-1.6-.5-2.1-.4-.5-.9-.7-1.7-.7h-1.7v5.5h1.7ZM74.1,231.8h2.9c1,0,1.8.4,2.3,1.1.5.6.7,1.4.7,2.4s-.1,1.4-.4,2.1c-.5,1.1-1.4,1.6-2.6,1.6h-2.9v-7.2ZM83.3,233.7c.4,0,.7,0,1.1.3.3.2.6.4.8.7.2.3.3.6.4.9,0,.2,0,.6,0,1.2h-3.8c0,.5.1,1,.4,1.3.2.3.6.5,1.1.5s.8-.2,1.1-.5c.2-.2.3-.4.3-.6h.9c0,.2,0,.4-.2.6-.1.2-.3.4-.4.6-.3.3-.6.4-1,.5-.2,0-.5,0-.7,0-.7,0-1.2-.2-1.7-.7-.5-.5-.7-1.1-.7-2s.2-1.5.7-2c.5-.5,1.1-.8,1.8-.8ZM84.7,236c0-.4-.1-.7-.2-.9-.2-.4-.6-.6-1.2-.6s-.7.1-1,.4c-.3.3-.4.7-.4,1.1h2.9ZM87.3,237.4c0,.3,0,.5.2.7.2.3.6.4,1.2.4s.6,0,.9-.2c.2-.1.4-.4.4-.7s0-.4-.3-.5c-.1,0-.4-.2-.8-.2l-.7-.2c-.4-.1-.8-.2-1-.4-.4-.2-.6-.6-.6-1s.2-.9.5-1.2c.4-.3.8-.5,1.4-.5s1.4.2,1.7.7c.2.3.3.6.3.9h-.8c0-.2,0-.4-.2-.5-.2-.2-.6-.3-1-.3s-.6,0-.8.2c-.2.1-.3.3-.3.5s.1.4.3.5c.1,0,.3.2.6.2h.6c.6.3,1.1.4,1.3.6.3.2.5.6.5,1.1s-.2.9-.5,1.2c-.4.3-.9.5-1.6.5s-1.3-.2-1.7-.5c-.3-.4-.5-.8-.5-1.3h.8ZM91.7,233.8h.9v5.2h-.9v-5.2ZM91.7,231.8h.9v1h-.9v-1ZM95.8,233.7c.4,0,.8.1,1.1.3.2.1.3.3.5.5v-.7h.8v4.8c0,.7,0,1.2-.3,1.6-.4.7-1.1,1.1-2.1,1.1s-1-.1-1.4-.4c-.4-.3-.6-.6-.6-1.2h.9c0,.2.1.4.3.5.2.2.5.3.9.3.7,0,1.1-.2,1.3-.7.1-.3.2-.8.2-1.5-.2.3-.4.5-.6.6-.2.1-.6.2-1,.2s-1.1-.2-1.5-.6c-.4-.4-.6-1.1-.6-2s.2-1.6.6-2.1c.4-.5.9-.7,1.6-.7ZM97.4,236.4c0-.6-.1-1.1-.4-1.4-.3-.3-.6-.5-1-.5-.6,0-1,.3-1.3.9-.1.3-.2.7-.2,1.2s.1,1,.4,1.3c.2.3.6.5,1,.5.6,0,1.1-.3,1.3-.9.1-.3.2-.7.2-1.1ZM99.5,233.8h.8v.7c.2-.3.5-.5.8-.7.3-.1.6-.2.9-.2.7,0,1.2.3,1.5.8.1.3.2.7.2,1.2v3.4h-.9v-3.3c0-.3,0-.6-.1-.8-.2-.3-.4-.5-.8-.5s-.4,0-.5,0c-.2,0-.5.2-.6.4-.1.2-.2.4-.3.5,0,.2,0,.4,0,.8v2.7h-.9v-5.2ZM28.9,244.6c.3-.2.5-.4.6-.5.2-.2.3-.5.3-.7s0-.4-.2-.5-.3-.2-.6-.2c-.4,0-.6.1-.8.4,0,.1-.1.3-.1.4s0,.4.2.6c.1.2.3.4.5.7ZM28.6,248.4c.4,0,.7,0,.9-.2.3-.2.5-.4.6-.6l-1.6-2c-.5.3-.8.5-.9.7-.2.2-.3.5-.3.9s.1.7.4.9c.3.2.6.3.9.3ZM28.1,245c-.3-.3-.5-.6-.6-.9-.1-.2-.2-.5-.2-.7,0-.5.2-.8.5-1.1.3-.3.7-.5,1.3-.5s.9.1,1.2.4c.3.3.4.6.4,1s-.1.9-.4,1.2c-.2.2-.5.4-.8.7l1.3,1.6c0-.3.1-.5.2-.6,0-.1,0-.3.1-.5h.8c0,.5-.2.9-.3,1.3-.2.4-.2.6-.2.5l1.3,1.5h-1.1l-.7-.8c-.3.3-.5.5-.7.6-.4.2-.8.4-1.3.4-.7,0-1.3-.2-1.6-.6-.3-.4-.5-.9-.5-1.4s.2-1,.5-1.4c.2-.2.6-.5,1.1-.8ZM41.3,241.8v.9h-2.4v6.3h-1v-6.3h-2.4v-.9h5.8ZM43.1,243.7c.4,0,.7,0,1.1.3.3.2.6.4.8.7.2.3.3.6.4.9,0,.2,0,.6,0,1.2h-3.8c0,.5.1,1,.4,1.3.2.3.6.5,1.1.5s.8-.2,1.1-.5c.2-.2.3-.4.3-.6h.9c0,.2,0,.4-.2.6-.1.2-.3.4-.4.6-.3.3-.6.4-1,.5-.2,0-.5,0-.7,0-.7,0-1.2-.2-1.7-.7-.5-.5-.7-1.1-.7-2s.2-1.5.7-2c.5-.5,1.1-.8,1.8-.8ZM44.5,246c0-.4-.1-.7-.2-.9-.2-.4-.6-.6-1.2-.6s-.7.1-1,.4c-.3.3-.4.7-.4,1.1h2.9ZM48.5,243.6c.6,0,1.1.1,1.4.4.4.3.6.8.7,1.5h-.9c0-.3-.2-.6-.4-.8-.2-.2-.5-.3-.9-.3s-1,.3-1.2.8c-.2.4-.2.8-.2,1.3s.1,1,.3,1.3c.2.4.6.5,1,.5s.7-.1.9-.3c.2-.2.4-.5.4-.9h.9c0,.7-.3,1.2-.7,1.5-.4.3-.9.5-1.5.5s-1.2-.2-1.6-.7c-.4-.5-.6-1.1-.6-1.9s.2-1.6.7-2.1c.4-.5,1-.8,1.7-.8ZM51.5,241.8h.9v2.7c.2-.3.4-.4.6-.6.3-.2.6-.3,1.1-.3.8,0,1.3.3,1.5.8.1.3.2.7.2,1.2v3.4h-.9v-3.3c0-.4,0-.7-.1-.8-.2-.3-.5-.4-.9-.4s-.7.1-1,.4c-.3.2-.4.7-.4,1.4v2.8h-.9v-7.2ZM57.1,243.8h.8v.7c.2-.3.5-.5.8-.7.3-.1.6-.2.9-.2.7,0,1.2.3,1.5.8.1.3.2.7.2,1.2v3.4h-.9v-3.3c0-.3,0-.6-.1-.8-.2-.3-.4-.5-.8-.5s-.4,0-.5,0c-.2,0-.5.2-.6.4-.1.2-.2.4-.3.5,0,.2,0,.4,0,.8v2.7h-.9v-5.2ZM64.7,248.4c.6,0,1-.2,1.2-.7.2-.4.3-.9.3-1.5s0-.9-.2-1.2c-.2-.5-.7-.7-1.3-.7s-.9.2-1.2.6c-.2.4-.4.9-.4,1.5s.1,1,.4,1.4c.2.4.6.6,1.2.6ZM64.7,243.6c.7,0,1.2.2,1.7.7.5.4.7,1.1.7,2s-.2,1.5-.6,2.1c-.4.5-1,.8-1.9.8s-1.3-.2-1.7-.7c-.4-.5-.6-1.1-.6-2s.2-1.6.7-2.1c.4-.5,1-.8,1.8-.8ZM68.2,241.8h.9v7.2h-.9v-7.2ZM72.5,248.4c.6,0,1-.2,1.2-.7.2-.4.3-.9.3-1.5s0-.9-.2-1.2c-.2-.5-.7-.7-1.3-.7s-.9.2-1.2.6c-.2.4-.4.9-.4,1.5s.1,1,.4,1.4c.2.4.6.6,1.2.6ZM72.5,243.6c.7,0,1.2.2,1.7.7s.7,1.1.7,2-.2,1.5-.6,2.1c-.4.5-1,.8-1.9.8s-1.3-.2-1.7-.7c-.4-.5-.6-1.1-.6-2s.2-1.6.7-2.1c.4-.5,1-.8,1.8-.8ZM77.8,243.7c.4,0,.8.1,1.1.3.2.1.3.3.5.5v-.7h.8v4.8c0,.7,0,1.2-.3,1.6-.4.7-1.1,1.1-2.1,1.1s-1-.1-1.4-.4c-.4-.3-.6-.6-.6-1.2h.9c0,.2.1.4.3.5.2.2.5.3.9.3.7,0,1.1-.2,1.3-.7.1-.3.2-.8.2-1.5-.2.3-.4.5-.6.6-.2.1-.6.2-1,.2s-1.1-.2-1.5-.6c-.4-.4-.6-1.1-.6-2s.2-1.6.6-2.1c.4-.5.9-.7,1.6-.7ZM79.4,246.4c0-.6-.1-1.1-.4-1.4-.3-.3-.6-.5-1-.5-.6,0-1,.3-1.3.9-.1.3-.2.7-.2,1.2s.1,1,.4,1.3c.2.3.6.5,1,.5.6,0,1.1-.3,1.3-.9.1-.3.2-.7.2-1.1ZM84.8,243.8h1c-.1.3-.4,1.1-.8,2.3-.3.9-.6,1.6-.8,2.2-.5,1.3-.9,2.1-1.1,2.4-.2.3-.6.4-1.1.4s-.2,0-.3,0c0,0-.1,0-.2,0v-.8c.2,0,.3,0,.3,0,0,0,.1,0,.2,0,.2,0,.3,0,.4,0,0,0,.1-.1.2-.2,0,0,0-.2.2-.4.1-.2.2-.4.2-.5l-1.9-5.4h1l1.4,4.3,1.4-4.3Z"/>
  <path class="st1" d="M26.7,258.3c0-.3,0-.7.2-.9.1-.3.3-.5.5-.7.2-.2.4-.4.7-.5.3-.1.6-.2.9-.2s.7,0,.9.2c.3.1.5.2.7.4.2.2.3.4.4.6,0,.2.1.5.1.8s0,.6-.2.8c-.1.2-.2.5-.4.6-.2.2-.4.4-.6.5-.2.1-.4.3-.7.4-.2.1-.5.2-.7.4s-.4.2-.6.4c-.1,0-.2.2-.3.3-.1,0-.2.2-.3.3,0,.1-.2.2-.2.4,0,.1,0,.3,0,.4h3.9v.5h-4.6c0-.3,0-.6.1-.9,0-.3.2-.5.4-.8.2-.3.5-.5.8-.7.3-.2.5-.4.8-.5.3-.2.5-.3.7-.4.2-.1.4-.3.6-.4.2-.2.3-.3.4-.5.1-.2.2-.4.2-.7s0-.4-.1-.6c0-.2-.2-.3-.3-.5-.1-.1-.3-.2-.5-.3-.2,0-.4-.1-.6-.1s-.4,0-.6.2c-.2,0-.4.2-.5.4-.1.2-.2.3-.3.6,0,.2-.1.4,0,.7h-.7ZM36.1,259.5c0-.4,0-.8,0-1.1,0-.4-.1-.7-.2-1-.1-.3-.3-.5-.5-.7-.2-.2-.5-.3-.9-.3s-.6,0-.9.3c-.2.2-.4.4-.5.7-.1.3-.2.6-.3,1,0,.4,0,.8,0,1.1s0,.9,0,1.2c0,.4.2.7.3.9.1.3.3.5.5.6.2.1.5.2.9.2s.7,0,.9-.3c.2-.2.4-.4.5-.7s.2-.6.2-1c0-.4,0-.7,0-1.1ZM34.3,255.9c.3,0,.6,0,.9.2.3.1.5.2.6.4.2.2.3.4.4.6.1.2.2.5.3.8,0,.3,0,.5.1.8,0,.3,0,.6,0,.8,0,.5,0,.9,0,1.3,0,.4-.2.8-.4,1.1-.2.3-.4.6-.7.8-.3.2-.7.3-1.2.3s-.9,0-1.2-.3c-.3-.2-.5-.5-.7-.8-.2-.3-.3-.7-.4-1.1,0-.4-.1-.9-.1-1.4s0-.9,0-1.3c0-.4.2-.8.3-1.1.2-.3.4-.6.7-.8.3-.2.7-.3,1.2-.3ZM37.8,258.3c0-.3,0-.7.2-.9.1-.3.3-.5.5-.7.2-.2.4-.4.7-.5.3-.1.6-.2,1-.2s.7,0,.9.2c.3.1.5.2.7.4.2.2.3.4.4.6,0,.2.1.5.1.8s0,.6-.2.8c0,.2-.2.5-.4.6-.2.2-.4.4-.6.5-.2.1-.4.3-.7.4-.2.1-.5.2-.7.4-.2.1-.4.2-.6.4-.1,0-.2.2-.3.3-.1,0-.2.2-.3.3,0,.1-.2.2-.2.4,0,.1,0,.3,0,.4h3.9v.5h-4.6c0-.3,0-.6.1-.9,0-.3.2-.5.4-.8.2-.3.5-.5.8-.7.3-.2.5-.4.8-.5.3-.2.5-.3.7-.4.2-.1.4-.3.6-.4.2-.2.3-.3.4-.5.1-.2.2-.4.2-.7s0-.4-.1-.6c0-.2-.2-.3-.3-.5-.1-.1-.3-.2-.5-.3-.2,0-.4-.1-.6-.1s-.4,0-.6.2c-.2,0-.3.2-.5.4-.1.2-.2.3-.3.6,0,.2-.1.4,0,.7h-.7ZM46.2,261.3h-3.2v-.6l3.3-4.7h.6v4.7h1v.5h-1v1.7h-.6v-1.7ZM43.7,260.7h2.6v-3.7l-2.6,3.7Z"/>
</svg>